<?xml version="1.0" encoding="UTF-8" standalone="no"?>
<!-- Created with Inkscape (http://www.inkscape.org/) -->

<svg
   xmlns:dc="http://purl.org/dc/elements/1.1/"
   xmlns:cc="http://creativecommons.org/ns#"
   xmlns:rdf="http://www.w3.org/1999/02/22-rdf-syntax-ns#"
   xmlns:svg="http://www.w3.org/2000/svg"
   xmlns="http://www.w3.org/2000/svg"
   xmlns:sodipodi="http://sodipodi.sourceforge.net/DTD/sodipodi-0.dtd"
   xmlns:inkscape="http://www.inkscape.org/namespaces/inkscape"
   width="15.597107mm"
   height="19.633991mm"
   viewBox="0 0 55.26534 69.56926"
   id="svg4682"
   version="1.1"
   inkscape:version="0.91 r13725"
   sodipodi:docname="animation.svg">
  <defs
     id="defs4684" />
  <sodipodi:namedview
     id="base"
     pagecolor="#ffffff"
     bordercolor="#666666"
     borderopacity="1.0"
     inkscape:pageopacity="0.0"
     inkscape:pageshadow="2"
     inkscape:zoom="13.209857"
     inkscape:cx="27.63267"
     inkscape:cy="34.78463"
     inkscape:document-units="px"
     inkscape:current-layer="layer1"
     showgrid="false"
     fit-margin-top="0"
     fit-margin-left="0"
     fit-margin-right="0"
     fit-margin-bottom="0"
     inkscape:window-width="1920"
     inkscape:window-height="1056"
     inkscape:window-x="1920"
     inkscape:window-y="24"
     inkscape:window-maximized="1" />
  <metadata
     id="metadata4687">
    <rdf:RDF>
      <cc:Work
         rdf:about="">
        <dc:format>image/svg+xml</dc:format>
        <dc:type
           rdf:resource="http://purl.org/dc/dcmitype/StillImage" />
        <dc:title></dc:title>
      </cc:Work>
    </rdf:RDF>
  </metadata>
  <g
     inkscape:label="Calque 1"
     inkscape:groupmode="layer"
     id="layer1"
     transform="translate(827.63267,73.850997)">
    <path
       inkscape:connector-curvature="0"
       d="m -815.726,-72.950997 c -0.44933,0.0011 -11.00667,0.158266 -11.00667,11.0052 l 0,45.759892 c 0.003,0.44688 0.16134,11.0041688 11.00534,11.0041688 l 31.45466,0 c 0.448,0 11.00534,-0.158855 11.00534,-11.0041688 l 0,-45.759892 c -10e-4,-0.447867 -0.16,-11.0052 -11.00534,-11.0052 l -31.45466,0 0.001,0 z"
       style="fill:none;stroke:#da0f64;stroke-width:1.79999995;stroke-linecap:butt;stroke-linejoin:miter;stroke-miterlimit:4;stroke-dasharray:none;stroke-opacity:1"
       id="path70" />
    <path
       inkscape:connector-curvature="0"
       d="m -788.37533,-36.728598 0,-5.850533 c 0,-0.814533 -0.224,-2.109333 -0.496,-2.8812 l -0.932,-2.609467 c -0.27334,-0.7692 -0.49734,-0.730666 -0.49734,0.08547 l 0,11.255733 c 0,0.809333 -0.16133,3.251067 -0.35733,3.880133 -0.19733,0.6308 -1.15467,2.640134 -1.56533,3.1344 -0.41067,0.5 -2.036,1.9792 -2.604,2.2896 -0.56934,0.314667 -2.67867,1.085467 -3.35334,1.158933 -0.67466,0.06667 -1.29466,0.123867 -1.37466,0.123867 l -0.888,0 c -0.084,0 -1.92267,-0.164 -2.552,-0.359867 -0.62534,-0.197333 -2.636,-1.153599 -3.13334,-1.565599 -0.49733,-0.409334 -1.98266,-2.0344 -2.29333,-2.602667 -0.308,-0.5708 -1.08,-2.680133 -1.14933,-3.353067 -0.0707,-0.675066 -0.128,-1.8964 -0.128,-2.705733 l 0,-11.255733 c 0,-0.816133 -0.224,-0.854667 -0.49734,-0.08547 l -0.932,2.609467 c -0.27333,0.771867 -0.49466,2.066667 -0.49466,2.8812 l 0,5.850533 c 0,0.809333 0.19333,3.622933 0.43466,4.388 0.23734,0.7588 1.396,3.2 1.89334,3.7964 0.49733,0.602533 2.464,2.402533 3.15333,2.778666 0.69333,0.371867 1.88,0.877067 2.64267,1.114534 0.76133,0.2412 1.43333,0.2812 1.43333,0.2812 0.156,0.01613 0.3,0.0308 0.44533,0.04373 l 0,8.920373 -3.32266,0 c -0.412,0 -0.74534,0.331774 -0.74534,0.743747 l 0,1.74948 c 0,0.410933 0.33334,0.742706 0.74534,0.742706 l 9.88666,0 c 0.412,0 0.74667,-0.331773 0.74667,-0.742706 l 0,-1.74948 c 0,-0.411973 -0.33467,-0.743747 -0.74667,-0.743747 l -3.324,0 0,-8.928106 c 0.68134,-0.07867 1.47867,-0.190667 1.88,-0.3172 0.76534,-0.237467 3.2,-1.3964 3.80134,-1.8964 0.6,-0.494267 2.39866,-2.465067 2.77333,-3.155733 0.37467,-0.685334 0.87733,-1.878667 1.116,-2.637467 0.23867,-0.765067 0.28267,-1.4344 0.28267,-1.4344 0.0827,-0.810933 0.152,-2.144267 0.152,-2.9536 m -3.28134,0.0964 0,-0.681867 -5.516,0 c -0.70533,0 -1.272,-0.567733 -1.272,-1.265066 0,-0.702667 0.56667,-1.271867 1.272,-1.271867 l 5.516,0 0,-1.9 -5.516,0 c -0.70533,0 -1.272,-0.568266 -1.272,-1.271866 0,-0.7032 0.56667,-1.2724 1.272,-1.2724 l 5.516,0 0,-1.9 -5.516,0 c -0.70533,0 -1.272,-0.567734 -1.272,-1.271867 0,-0.697467 0.56667,-1.271867 1.272,-1.271867 l 5.516,0 0,-1.8948 -5.516,0 c -0.70533,0 -1.272,-0.573466 -1.272,-1.276 0,-0.698533 0.56667,-1.267733 1.272,-1.267733 l 5.516,0 0,-1.9 -5.516,0 c -0.70533,0 -1.272,-0.568266 -1.272,-1.2724 0,-0.701066 0.56667,-1.271866 1.272,-1.271866 l 5.516,0 c 0,-4.509467 -3.57333,-8.177067 -8.044,-8.336 l 0,37.661466 c 4.47067,-0.1588 8.044,-3.826534 8.044,-8.335867 m -8.48666,8.3452 0,-37.675999 c -4.54267,0.07974 -8.20134,3.779736 -8.20134,8.341203 l 5.51867,0 c 0.70267,0 1.26933,0.5708 1.26933,1.271866 0,0.704134 -0.56666,1.2724 -1.26933,1.2724 l -5.51867,0 0,1.9 5.51867,0 c 0.70267,0 1.26933,0.5692 1.26933,1.267733 0,0.702534 -0.56666,1.276 -1.26933,1.276 l -5.51867,0 0,1.8948 5.51867,0 c 0.70267,0 1.26933,0.5744 1.26933,1.271867 0,0.704133 -0.56666,1.271867 -1.26933,1.271867 l -5.51867,0 0,1.9 5.51867,0 c 0.70267,0 1.26933,0.5692 1.26933,1.2724 0,0.7036 -0.56666,1.271866 -1.26933,1.271866 l -5.51867,0 0,1.9 5.51867,0 c 0.70267,0 1.26933,0.5692 1.26933,1.271867 0,0.697333 -0.56666,1.265066 -1.26933,1.265066 l -5.51867,0 0,0.681867 c 0,4.559867 3.65867,8.2676 8.20134,8.3452"
       style="fill:#da0f64;fill-opacity:1;fill-rule:nonzero;stroke:none"
       id="path72" />
  </g>
</svg>
