<?xml version="1.0" encoding="UTF-8" standalone="no"?>
<!-- Created with Inkscape (http://www.inkscape.org/) -->

<svg
   xmlns:dc="http://purl.org/dc/elements/1.1/"
   xmlns:cc="http://creativecommons.org/ns#"
   xmlns:rdf="http://www.w3.org/1999/02/22-rdf-syntax-ns#"
   xmlns:svg="http://www.w3.org/2000/svg"
   xmlns="http://www.w3.org/2000/svg"
   xmlns:sodipodi="http://sodipodi.sourceforge.net/DTD/sodipodi-0.dtd"
   xmlns:inkscape="http://www.inkscape.org/namespaces/inkscape"
   width="18.300728mm"
   height="18.300491mm"
   viewBox="0 0 64.845099 64.84426"
   id="svg4120"
   version="1.1"
   inkscape:version="0.91 r13725"
   sodipodi:docname="annonce.svg">
  <defs
     id="defs4122" />
  <sodipodi:namedview
     id="base"
     pagecolor="#ffffff"
     bordercolor="#666666"
     borderopacity="1.0"
     inkscape:pageopacity="0.0"
     inkscape:pageshadow="2"
     inkscape:zoom="0.35"
     inkscape:cx="2024.5654"
     inkscape:cy="-664.72072"
     inkscape:document-units="px"
     inkscape:current-layer="layer1"
     showgrid="false"
     fit-margin-top="0"
     fit-margin-left="0"
     fit-margin-right="0"
     fit-margin-bottom="0"
     inkscape:window-width="1877"
     inkscape:window-height="1056"
     inkscape:window-x="43"
     inkscape:window-y="24"
     inkscape:window-maximized="1" />
  <metadata
     id="metadata4125">
    <rdf:RDF>
      <cc:Work
         rdf:about="">
        <dc:format>image/svg+xml</dc:format>
        <dc:type
           rdf:resource="http://purl.org/dc/dcmitype/StillImage" />
        <dc:title></dc:title>
      </cc:Work>
    </rdf:RDF>
  </metadata>
  <g
     inkscape:label="Calque 1"
     inkscape:groupmode="layer"
     id="layer1"
     transform="translate(1649.5654,197.20278)">
    <path
       inkscape:connector-curvature="0"
       d="m -1617.1443,-132.35852 c -17.8772,0 -32.4211,-14.54533 -32.4211,-32.42427 0,-17.87599 14.5439,-32.41999 32.4211,-32.41999 17.8786,0 32.424,14.544 32.424,32.41999 0,17.87894 -14.5454,32.42427 -32.424,32.42427 m 0,-62.50293 c -16.5867,0 -30.0799,13.49333 -30.0799,30.07866 0,16.58774 13.4932,30.08254 30.0799,30.08254 16.588,0 30.084,-13.4948 30.084,-30.08254 0,-16.58533 -13.496,-30.07866 -30.084,-30.07866"
       style="fill:#da0f64;fill-opacity:1;fill-rule:nonzero;stroke:none"
       id="path48" />
    <path
       inkscape:connector-curvature="0"
       d="m -1604.0123,-153.34919 c -5.304,-4.93626 -11.512,-7.1416 -18.5867,-7.20693 -0.024,-0.24933 -0.064,-0.468 -0.065,-0.688 0,-3.784 0,-7.56667 -0.01,-11.34933 0,-0.51867 -0.043,-0.92667 0.7226,-0.94 6.7587,-0.116 12.6987,-2.34667 17.7027,-6.94933 0.037,-0.0347 0.096,-0.048 0.232,-0.11334 l 0,27.24693"
       style="fill:#da0f64;fill-opacity:1;fill-rule:nonzero;stroke:none"
       id="path50" />
    <path
       inkscape:connector-curvature="0"
       d="m -1624.1577,-160.55612 -3.4248,0 c -1.9609,0 -3.9224,-0.016 -5.8824,0.012 -0.4916,0.008 -0.7462,-0.15867 -0.8733,-0.616 -0.2839,-1.02533 -0.6267,-2.03733 -0.8573,-3.076 -0.112,-0.508 -0.3188,-0.672 -0.8068,-0.63067 -0.3422,0.028 -0.6948,0.0187 -1.0359,-0.0253 -0.8319,-0.10266 -1.2745,-0.59066 -1.3308,-1.43333 -0.016,-0.23067 -0.01,-0.46267 -0.01,-0.692 -0.01,-1.76933 0.4093,-2.224 2.1896,-2.14533 0.7151,0.0307 0.9224,-0.24 1.0599,-0.87067 0.2125,-0.98133 0.5166,-1.94533 0.8369,-2.89733 0.071,-0.21467 0.3704,-0.50134 0.5677,-0.50267 3.1667,-0.032 6.3334,-0.024 9.566,-0.024 l 0,12.90133"
       style="fill:#da0f64;fill-opacity:1;fill-rule:nonzero;stroke:none"
       id="path52" />
    <path
       inkscape:connector-curvature="0"
       d="m -1599.6243,-170.53612 c 2.4973,0.69733 3.768,1.98267 3.7146,3.732 -0.053,1.74 -1.3786,3.02133 -3.7693,3.57067 0,1.87333 0,3.772 0,5.668 0,1.76 0.012,3.52146 -0.01,5.28293 -0.011,1.1344 -0.396,1.63173 -1.212,1.65413 -0.7413,0.0177 -1.7493,-1.0036 -1.752,-1.8104 -0.01,-4.3 -0.012,-8.60266 -0.012,-12.904 0,-5.36933 0.01,-10.74 0.011,-16.10933 0,-0.70666 0.7733,-1.76133 1.424,-1.948 0.7533,-0.21733 1.4866,0.328 1.5253,1.19734 0.043,0.98 0.025,1.964 0.027,2.944 0,2.74399 0,5.48399 0.01,8.22666 0,0.17067 0.027,0.34 0.04,0.496"
       style="fill:#da0f64;fill-opacity:1;fill-rule:nonzero;stroke:none"
       id="path54" />
    <path
       inkscape:connector-curvature="0"
       d="m -1631.8242,-159.30412 c 1.6199,0 3.1427,-0.0173 4.6645,0.0267 0.1527,0.004 0.3715,0.35734 0.4287,0.58267 0.36,1.42267 0.5867,2.8868 1.052,4.27213 0.3613,1.07347 1.0693,2.02507 1.5053,3.07974 0.476,1.15733 0.9027,2.34786 1.184,3.56306 0.1814,0.7864 -0.5066,1.56347 -1.4533,1.6052 -1.9573,0.0839 -3.9239,0.0796 -5.8812,-0.0109 -0.9183,-0.0439 -1.4948,-0.98907 -1.4968,-2.13187 -0.01,-2.94533 0,-5.89053 0,-8.836 0,-0.684 0,-1.368 0,-2.15066"
       style="fill:#da0f64;fill-opacity:1;fill-rule:nonzero;stroke:none"
       id="path56" />
  </g>
</svg>
