<?xml version="1.0" encoding="UTF-8" standalone="no"?>
<!-- Created with Inkscape (http://www.inkscape.org/) -->

<svg
   xmlns:dc="http://purl.org/dc/elements/1.1/"
   xmlns:cc="http://creativecommons.org/ns#"
   xmlns:rdf="http://www.w3.org/1999/02/22-rdf-syntax-ns#"
   xmlns:svg="http://www.w3.org/2000/svg"
   xmlns="http://www.w3.org/2000/svg"
   xmlns:sodipodi="http://sodipodi.sourceforge.net/DTD/sodipodi-0.dtd"
   xmlns:inkscape="http://www.inkscape.org/namespaces/inkscape"
   width="13.595221mm"
   height="18.213869mm"
   viewBox="0 0 48.172041 64.537331"
   id="svg4726"
   version="1.1"
   inkscape:version="0.91 r13725"
   sodipodi:docname="contact.svg">
  <defs
     id="defs4728" />
  <sodipodi:namedview
     id="base"
     pagecolor="#ffffff"
     bordercolor="#666666"
     borderopacity="1.0"
     inkscape:pageopacity="0.0"
     inkscape:pageshadow="2"
     inkscape:zoom="0.35"
     inkscape:cx="653.37172"
     inkscape:cy="-464.87419"
     inkscape:document-units="px"
     inkscape:current-layer="layer1"
     showgrid="false"
     fit-margin-top="0"
     fit-margin-left="0"
     fit-margin-right="0"
     fit-margin-bottom="0"
     inkscape:window-width="1920"
     inkscape:window-height="1056"
     inkscape:window-x="1920"
     inkscape:window-y="24"
     inkscape:window-maximized="1" />
  <metadata
     id="metadata4731">
    <rdf:RDF>
      <cc:Work
         rdf:about="">
        <dc:format>image/svg+xml</dc:format>
        <dc:type
           rdf:resource="http://purl.org/dc/dcmitype/StillImage" />
        <dc:title></dc:title>
      </cc:Work>
    </rdf:RDF>
  </metadata>
  <g
     inkscape:label="Calque 1"
     inkscape:groupmode="layer"
     id="layer1"
     transform="translate(278.37172,-2.9506816)">
    <path
       inkscape:connector-curvature="0"
       id="path26"
       style="fill:#da0f64;fill-opacity:1;fill-rule:nonzero;stroke:none"
       d="m -237.34372,10.018681 c -4.712,-4.7106661 -10.37066,-7.0679994 -16.97866,-7.0679994 -6.60934,0 -12.268,2.3573333 -16.98,7.0679994 -4.712,4.713334 -7.06934,10.400001 -7.06934,17.056 l 0,16.441333 c 0,6.606667 2.35734,12.266667 7.06934,16.978667 4.66,4.662666 10.32133,6.993333 16.98,6.993333 6.45333,0 12.03466,-2.278667 16.748,-6.838667 l -3.688,-3.456 c -3.79067,3.481334 -8.144,5.224 -13.06,5.224 -5.22534,0 -9.70667,-1.845333 -13.44534,-5.533333 -3.688,-3.737333 -5.532,-8.22 -5.532,-13.445333 l 0,-16.364 c 0,-5.223999 1.844,-9.679999 5.532,-13.367999 3.73867,-3.7373339 8.22,-5.6093339 13.44534,-5.6093339 5.224,0 9.68,1.872 13.368,5.6093339 3.73733,3.688 5.608,8.144 5.608,13.367999 l 0,18.670667 c 0,0.564 -0.028,0.870666 -0.0773,0.921333 l 0.0773,0 c -0.052,1.589333 -0.896,2.382667 -2.53467,2.382667 -1.69067,0 -2.536,-0.845334 -2.536,-2.537334 l 0,-8.757333 c 0,-3.637333 -1.30533,-6.76 -3.91867,-9.372 -2.612,-2.613333 -5.76266,-3.92 -9.44933,-3.92 -3.63867,0 -6.76133,1.306667 -9.37333,3.92 -2.61067,2.612 -3.91734,5.734667 -3.91734,9.372 l 0,3.073333 c 0,3.686667 1.30667,6.836 3.91734,9.450667 2.612,2.610666 5.73466,3.917333 9.37333,3.917333 3.68667,0 6.78667,-1.256 9.296,-3.764 1.43333,2.508 3.636,3.764 6.608,3.764 2.304,0 4.19867,-0.846667 5.68533,-2.534667 1.536,-1.741333 2.176,-3.766666 1.92134,-6.069333 l 0,-0.614666 0.0747,-17.902667 -0.0747,-0.07733 c 0,-6.606666 -2.35734,-12.265333 -7.06934,-16.978667 m -23.97066,24.546664 c 0.40933,-0.998667 0.98533,-1.868 1.72933,-2.612 0.74133,-0.741333 1.59867,-1.317333 2.57333,-1.729333 0.97067,-0.408 2.048,-0.614667 3.22667,-0.614667 1.12667,0 2.18933,0.218667 3.18667,0.654667 1,0.436 1.87066,1.010666 2.612,1.728 0.744,0.718666 1.33333,1.574666 1.76933,2.573333 0.43467,0.998667 0.65333,2.062666 0.65333,3.189333 l 0,3.073333 c 0,1.177334 -0.21866,2.266667 -0.65333,3.265334 -0.436,0.998666 -1.02533,1.856 -1.76933,2.573333 -0.74134,0.717333 -1.612,1.293333 -2.612,1.728 -0.99734,0.436 -2.06,0.654667 -3.18667,0.654667 -1.12667,0 -2.19067,-0.218667 -3.188,-0.654667 -0.99867,-0.434667 -1.856,-1.010667 -2.57467,-1.728 -0.71733,-0.717333 -1.29333,-1.574667 -1.72666,-2.573333 -0.43867,-0.998667 -0.65467,-2.088 -0.65467,-3.265334 l 0,-3.073333 c 0,-1.126667 0.204,-2.190666 0.61467,-3.189333" />
  </g>
</svg>
