<?xml version="1.0" encoding="UTF-8" standalone="no"?>
<!-- Created with Inkscape (http://www.inkscape.org/) -->

<svg
   xmlns:dc="http://purl.org/dc/elements/1.1/"
   xmlns:cc="http://creativecommons.org/ns#"
   xmlns:rdf="http://www.w3.org/1999/02/22-rdf-syntax-ns#"
   xmlns:svg="http://www.w3.org/2000/svg"
   xmlns="http://www.w3.org/2000/svg"
   xmlns:sodipodi="http://sodipodi.sourceforge.net/DTD/sodipodi-0.dtd"
   xmlns:inkscape="http://www.inkscape.org/namespaces/inkscape"
   width="15.597104mm"
   height="19.634285mm"
   viewBox="0 0 55.265329 69.570301"
   id="svg4547"
   version="1.1"
   inkscape:version="0.91 r13725"
   sodipodi:docname="finance.svg">
  <defs
     id="defs4549" />
  <sodipodi:namedview
     id="base"
     pagecolor="#ffffff"
     bordercolor="#666666"
     borderopacity="1.0"
     inkscape:pageopacity="0.0"
     inkscape:pageshadow="2"
     inkscape:zoom="0.35"
     inkscape:cx="639.77552"
     inkscape:cy="-390.92913"
     inkscape:document-units="px"
     inkscape:current-layer="layer1"
     showgrid="false"
     fit-margin-top="0"
     fit-margin-left="0"
     fit-margin-right="0"
     fit-margin-bottom="0"
     inkscape:window-width="1920"
     inkscape:window-height="1056"
     inkscape:window-x="1920"
     inkscape:window-y="24"
     inkscape:window-maximized="1" />
  <metadata
     id="metadata4552">
    <rdf:RDF>
      <cc:Work
         rdf:about="">
        <dc:format>image/svg+xml</dc:format>
        <dc:type
           rdf:resource="http://purl.org/dc/dcmitype/StillImage" />
        <dc:title></dc:title>
      </cc:Work>
    </rdf:RDF>
  </metadata>
  <g
     inkscape:label="Calque 1"
     inkscape:groupmode="layer"
     id="layer1"
     transform="translate(264.77552,-71.862768)">
    <path
       inkscape:connector-curvature="0"
       d="m -216.44886,109.46383 c 0,-1.10373 -0.896,-1.99853 -2,-1.99853 l -1.40133,0 c -0.748,-4.528 -3.63067,-8.414533 -7.68133,-10.809333 -1.524,2.064134 -3.96534,3.407863 -6.72,3.407863 -3.684,0 -6.812,-2.395863 -7.924,-5.706263 l -4.20134,-3.186933 c -0.52,-0.391733 -0.99733,-0.169333 -1.068,0.498934 l -0.64666,6.178666 c -2.20134,1.695733 -3.91734,3.883736 -4.96534,6.375996 l -2.78133,0 c -1.1,0 -2,0.90107 -2,2.00107 l 0,6.08013 c 0,1.10107 0.9,2.00107 2,2.00107 l 2.36533,0 c 1.164,3.53227 3.65734,6.54267 6.95867,8.54693 l 0,3.8708 c 0,0.49427 0.40533,0.8968 0.89733,0.8968 l 4.4,0 c 0.49334,0 0.89734,-0.40253 0.89734,-0.8968 l 0,-1.53746 c 1.09866,0.1984 2.236,0.30666 3.4,0.30666 1.164,0 2.3,-0.10826 3.4,-0.30666 l 0,1.53746 c 0,0.49427 0.404,0.8968 0.89733,0.8968 l 4.39867,0 c 0.49333,0 0.89733,-0.40253 0.89733,-0.8968 l 0,-3.8708 c 4.15733,-2.524 7.04,-6.63853 7.59067,-11.38706 l 1.28666,0 c 1.104,0 2,-0.8968 2,-2.00254 m -27.14266,-6.3584 c 0,1.436 -1.16267,2.6 -2.59867,2.6 -1.22133,0 -2.23733,-0.8468 -2.516,-1.9828 0.33067,0.46667 0.872,0.77187 1.48667,0.77187 1.01066,0 1.83066,-0.82133 1.83066,-1.8292 0,-1.01187 -0.82,-1.83227 -1.83066,-1.83227 -0.0867,0 -0.172,0.0152 -0.25734,0.0271 0.38134,-0.22026 0.816,-0.35613 1.28667,-0.35613 1.436,0 2.59867,1.164 2.59867,2.60147 m 15.368,-11.401469 c 0,-3.324 -2.70534,-6.0308 -6.028,-6.0308 -3.32534,0 -6.032,2.7068 -6.032,6.0308 0,3.325466 2.70666,6.027999 6.032,6.027999 3.32266,0 6.028,-2.702533 6.028,-6.027999 m -2.77467,-2.843867 -0.55067,1.167733 c -0.40266,-0.6068 -1.188,-1.112 -2.31066,-1.112 -1.23334,0 -1.96267,0.563067 -2.24267,1.348 l 4.44133,0 -0.53866,1.120267 -4.10534,0 c -0.0107,0.113067 -0.0227,0.270267 -0.0227,0.382267 0,0.112533 0.012,0.234933 0.0227,0.346933 l 3.75867,0 -0.528,1.122933 -2.916,0 c 0.224,0.6172 1.00933,1.2572 2.18667,1.2572 1.06666,0 1.852,-0.4724 2.244,-0.921333 l 0,1.3464 c -0.336,0.280133 -1.23334,0.693733 -2.412,0.693733 -1.96267,0 -3.084,-1.085467 -3.532,-2.376 l -1.40267,0 0.56133,-1.122933 0.572,0 c -0.0107,-0.155734 -0.0107,-0.257333 -0.0107,-0.357333 0,-0.113467 0,-0.214534 0.0107,-0.371867 l -1.13333,0 0.56133,-1.120267 0.84134,0 c 0.392,-1.403733 1.73733,-2.467733 3.7,-2.467733 1.12266,0 2.132,0.3916 2.80533,1.064"
       style="fill:#da0f64;fill-opacity:1;fill-rule:nonzero;stroke:none"
       id="path82" />
    <path
       inkscape:connector-curvature="0"
       d="m -252.87019,72.762768 c -0.448,0.0011 -11.00533,0.159867 -11.00533,11.0068 l 0,45.758292 c 10e-4,0.44792 0.16,11.00521 11.004,11.00521 l 31.456,0 c 0.448,0 11.00533,-0.1599 11.00533,-11.00521 l 0,-45.758292 c -0.001,-0.449467 -0.16,-11.0068 -11.00533,-11.0068 l -31.456,0 0.001,0 z"
       style="fill:none;stroke:#da0f64;stroke-width:1.79999995;stroke-linecap:butt;stroke-linejoin:miter;stroke-miterlimit:4;stroke-dasharray:none;stroke-opacity:1"
       id="path84" />
  </g>
</svg>
