<?xml version="1.0" encoding="UTF-8" standalone="no"?>
<!-- Created with Inkscape (http://www.inkscape.org/) -->

<svg
   xmlns:dc="http://purl.org/dc/elements/1.1/"
   xmlns:cc="http://creativecommons.org/ns#"
   xmlns:rdf="http://www.w3.org/1999/02/22-rdf-syntax-ns#"
   xmlns:svg="http://www.w3.org/2000/svg"
   xmlns="http://www.w3.org/2000/svg"
   xmlns:sodipodi="http://sodipodi.sourceforge.net/DTD/sodipodi-0.dtd"
   xmlns:inkscape="http://www.inkscape.org/namespaces/inkscape"
   width="18.300785mm"
   height="18.300493mm"
   viewBox="0 0 64.845301 64.844267"
   id="svg4072"
   version="1.1"
   inkscape:version="0.91 r13725"
   sodipodi:docname="flamme.svg">
  <defs
     id="defs4074" />
  <sodipodi:namedview
     id="base"
     pagecolor="#ffffff"
     bordercolor="#666666"
     borderopacity="1.0"
     inkscape:pageopacity="0.0"
     inkscape:pageshadow="2"
     inkscape:zoom="0.35"
     inkscape:cx="1735.9941"
     inkscape:cy="-579.00644"
     inkscape:document-units="px"
     inkscape:current-layer="layer1"
     showgrid="false"
     fit-margin-top="0"
     fit-margin-left="0"
     fit-margin-right="0"
     fit-margin-bottom="0"
     inkscape:window-width="1877"
     inkscape:window-height="1056"
     inkscape:window-x="43"
     inkscape:window-y="24"
     inkscape:window-maximized="1" />
  <metadata
     id="metadata4077">
    <rdf:RDF>
      <cc:Work
         rdf:about="">
        <dc:format>image/svg+xml</dc:format>
        <dc:type
           rdf:resource="http://purl.org/dc/dcmitype/StillImage" />
        <dc:title></dc:title>
      </cc:Work>
    </rdf:RDF>
  </metadata>
  <g
     inkscape:label="Calque 1"
     inkscape:groupmode="layer"
     id="layer1"
     transform="translate(1360.9941,111.4885)">
    <path
       inkscape:connector-curvature="0"
       d="m -1328.5733,-46.644234 c -17.8776,0 -32.4208,-14.545333 -32.4208,-32.424266 0,-17.875999 14.5432,-32.42 32.4208,-32.42 17.8781,0 32.4245,14.544001 32.4245,32.42 0,17.878933 -14.5464,32.424266 -32.4245,32.424266 m 0,-62.502936 c -16.5864,0 -30.0802,13.493337 -30.0802,30.07867 0,16.587733 13.4938,30.082533 30.0802,30.082533 16.588,0 30.0833,-13.4948 30.0833,-30.082533 0,-16.585333 -13.4953,-30.07867 -30.0833,-30.07867"
       style="fill:#da0f64;fill-opacity:1;fill-rule:nonzero;stroke:none"
       id="path44" />
    <path
       inkscape:connector-curvature="0"
       d="m -1345.0894,-84.417833 c 0.6781,-0.02133 1.289,0.196 1.888,0.474667 1.2204,0.566666 2.224,1.430666 3.2026,2.329333 0.411,0.374667 0.8088,0.762667 1.2787,1.208 0.4708,-4.18 0.01,-8.108 -2.1912,-11.725333 0.035,-0.03733 0.07,-0.07333 0.1057,-0.112 0.5068,0.125333 1.024,0.221333 1.5203,0.382667 1.4021,0.454666 2.6079,1.274666 3.7787,2.143999 0.7276,0.538667 1.4428,1.094667 2.2146,1.684 -0.059,-0.526666 -0.1469,-1.004 -0.1589,-1.486666 -0.029,-1.257334 -0.014,-2.518667 -0.036,-3.778667 -0.036,-2.117333 0.9348,-3.912 1.8333,-5.724 0.5135,-1.035997 1.1015,-2.033337 1.6563,-3.047997 0.029,-0.0533 0.07,-0.10134 0.1495,-0.21467 0.115,0.71867 0.1989,1.36667 0.3249,2.008 0.4485,2.274667 1.2027,4.453334 2.1021,6.585334 1.0131,2.405333 1.6782,4.905333 1.9932,7.497333 0.1136,0.938667 0.224,1.876 0.4292,2.873333 0.3307,-0.42 0.6771,-0.828 0.988,-1.261333 0.9214,-1.281333 1.5454,-2.690667 1.9162,-4.228 0.1208,-0.505333 0.4172,-0.973333 0.6541,-1.445333 0.078,-0.152 0.2229,-0.272 0.3855,-0.462667 0.031,0.150667 0.057,0.222667 0.057,0.292 0,1.489333 0.2776,2.928 0.6463,4.373333 0.3485,1.361334 0.5089,2.777334 0.6922,4.177334 0.1339,1.028 0.1708,2.069333 0.2531,3.106666 0,0.06133 0.031,0.121334 0.075,0.277334 0.2926,-0.212 0.5962,-0.353334 0.7896,-0.585334 0.9358,-1.114666 1.8656,-2.234666 2.7478,-3.390666 0.5735,-0.748 0.7703,-1.661334 0.9536,-2.614667 0.073,0.16 0.1823,0.313333 0.2162,0.481333 0.2568,1.306667 0.5422,2.614667 0.738,3.932 0.2152,1.450667 -0.201,2.861333 -0.4171,4.28 -0.112,0.729333 -0.2797,1.450667 -0.4188,2.176 -0.013,0.072 0.01,0.149333 0.012,0.242667 2.5249,-0.957334 5.1239,-1.52 7.8697,-1.989334 -0.151,0.170667 -0.215,0.261334 -0.2962,0.333334 -2.2574,2.045333 -3.4762,4.645333 -4.0855,7.5816 -0.2401,1.151466 -0.4412,2.326533 -0.8281,3.431733 -0.7063,2.022933 -2.0916,3.592133 -3.6172,5.0588 -1.6678,1.601066 -3.7146,2.4584 -5.8855,3.0464 -1.1703,0.317733 -2.3828,0.5308 -3.5889,0.645333 -0.6975,0.0656 -1.4215,-0.157333 -2.1402,-0.312 3.3214,-1.9948 6.2088,-4.3156 7.4146,-8.1464 -0.029,-0.05093 -0.058,-0.1 -0.086,-0.149467 -0.3052,0.06667 -0.6267,0.09587 -0.912,0.212 -0.8776,0.354667 -1.7418,0.746934 -2.6104,1.124 -0.093,0.04107 -0.1896,0.07347 -0.3756,0.147867 1.4322,-2.955733 3.1286,-5.740133 3.2604,-9.174533 -0.9744,0.353333 -1.6624,0.956 -2.3187,1.588 -0.6593,0.640267 -1.2803,1.3188 -1.9469,2.007867 0.3193,-2.5212 0.4568,-5.0132 0.3792,-7.638534 -1.5574,0.873334 -2.3599,2.284 -3.2812,3.618667 -0.04,-2.189333 -0.859,-4.118667 -1.8126,-6.136 -0.976,1.682667 -1.1568,3.492 -1.6062,5.289333 -0.8407,-1.329333 -1.3292,-2.834666 -2.725,-3.82 -0.4844,3.425334 -0.8698,6.736 0.2916,10.016267 -0.033,0.02507 -0.068,0.04787 -0.1016,0.07187 -0.095,-0.08547 -0.2104,-0.156267 -0.2812,-0.257334 -0.9256,-1.344266 -2.1521,-2.3536 -3.5229,-3.2068 -0.1636,-0.102666 -0.3303,-0.2 -0.588,-0.354666 -0.1833,2.382933 -0.1593,4.670933 0.7989,6.846933 -0.7973,-0.280267 -1.5666,-0.551067 -2.3349,-0.820267 -0.044,0.04 -0.086,0.0776 -0.1291,0.114534 0.3162,0.686933 0.5838,1.398933 0.9562,2.049466 1.5548,2.7256 3.9214,4.531733 6.7266,5.8188 0.5854,0.2692 1.1796,0.516133 1.7635,0.850533 -0.2181,0.03587 -0.4364,0.0828 -0.6577,0.102534 -4.3334,0.4204 -8.1543,-0.7812 -11.3871,-3.7068 -1.2531,-1.134267 -2.0343,-2.618134 -2.6656,-4.1728 -0.7505,-1.8496 -1.1744,-3.785467 -1.4588,-5.753733 -0.262,-1.827867 -0.636,-3.627867 -1.462,-5.3052 -0.4719,-0.956 -1.1219,-1.742667 -1.9938,-2.350667 -0.1026,-0.072 -0.1984,-0.153333 -0.3562,-0.273333 0.4776,-0.206667 0.9073,-0.273334 1.3667,-0.218667 1.0306,0.122667 1.9577,0.541333 2.8077,1.093333 0.9261,0.598667 1.7928,1.288 2.6844,1.938667 0.1043,0.076 0.21,0.150667 0.3104,0.224 0.032,-0.02267 0.067,-0.036 0.067,-0.048 0.1011,-2.358667 0.088,-4.705333 -0.5468,-7.004 -0.2693,-0.98 -0.6985,-1.870666 -1.4068,-2.613333 -0.026,-0.02933 -0.05,-0.06 -0.066,-0.096 -0.01,-0.01867 0,-0.04933 0,-0.112"
       style="fill:#da0f64;fill-opacity:1;fill-rule:nonzero;stroke:none"
       id="path46" />
  </g>
</svg>
