<?xml version="1.0" encoding="UTF-8" standalone="no"?>
<!-- Created with Inkscape (http://www.inkscape.org/) -->

<svg
   xmlns:dc="http://purl.org/dc/elements/1.1/"
   xmlns:cc="http://creativecommons.org/ns#"
   xmlns:rdf="http://www.w3.org/1999/02/22-rdf-syntax-ns#"
   xmlns:svg="http://www.w3.org/2000/svg"
   xmlns="http://www.w3.org/2000/svg"
   xmlns:sodipodi="http://sodipodi.sourceforge.net/DTD/sodipodi-0.dtd"
   xmlns:inkscape="http://www.inkscape.org/namespaces/inkscape"
   width="18.300949mm"
   height="18.300417mm"
   viewBox="0 0 64.845883 64.843997"
   id="svg4769"
   version="1.1"
   inkscape:version="0.91 r13725"
   sodipodi:docname="individu.svg">
  <defs
     id="defs4771" />
  <sodipodi:namedview
     id="base"
     pagecolor="#ffffff"
     bordercolor="#666666"
     borderopacity="1.0"
     inkscape:pageopacity="0.0"
     inkscape:pageshadow="2"
     inkscape:zoom="0.35"
     inkscape:cx="1078.8515"
     inkscape:cy="-313.29228"
     inkscape:document-units="px"
     inkscape:current-layer="layer1"
     showgrid="false"
     fit-margin-top="0"
     fit-margin-left="0"
     fit-margin-right="0"
     fit-margin-bottom="0"
     inkscape:window-width="1920"
     inkscape:window-height="1056"
     inkscape:window-x="1920"
     inkscape:window-y="24"
     inkscape:window-maximized="1" />
  <metadata
     id="metadata4774">
    <rdf:RDF>
      <cc:Work
         rdf:about="">
        <dc:format>image/svg+xml</dc:format>
        <dc:type
           rdf:resource="http://purl.org/dc/dcmitype/StillImage" />
        <dc:title></dc:title>
      </cc:Work>
    </rdf:RDF>
  </metadata>
  <g
     inkscape:label="Calque 1"
     inkscape:groupmode="layer"
     id="layer1"
     transform="translate(703.85151,-154.22592)">
    <path
       inkscape:connector-curvature="0"
       d="m -671.4307,219.06992 c -17.8776,0 -32.42081,-14.544 -32.42081,-32.424 0,-17.876 14.54321,-32.42 32.42081,-32.42 17.8776,0 32.42507,14.544 32.42507,32.42 0,17.88 -14.54747,32.424 -32.42507,32.424 m 0,-62.50267 c -16.5864,0 -30.07966,13.49334 -30.07966,30.07867 0,16.588 13.49326,30.08267 30.07966,30.08267 16.58853,0 30.08333,-13.49467 30.08333,-30.08267 0,-16.58533 -13.4948,-30.07867 -30.08333,-30.07867"
       style="fill:#da0f64;fill-opacity:1;fill-rule:nonzero;stroke:none"
       id="path22" />
    <path
       inkscape:connector-curvature="0"
       d="m -666.08177,180.90859 c 2.70467,-1.62134 4.5,-4.43067 4.5,-7.63867 0,-5.02667 -4.40986,-9.10133 -9.84893,-9.10133 -5.43853,0 -9.84786,4.07466 -9.84786,9.10133 0,3.208 1.7948,6.01733 4.50306,7.63867 -6.1016,2.5 -10.46146,9.15866 -10.46146,16.98133 0,1.188 0.0985,2.35467 0.2932,3.48533 3.7464,4.74667 9.3084,7.74934 15.51306,7.74934 6.20573,0 11.7672,-3.00267 15.5156,-7.74934 0.19013,-1.13066 0.29227,-2.29733 0.29227,-3.48533 0,-7.82267 -4.362,-14.48133 -10.45894,-16.98133 m 4.19694,6.52666 -9.688,14.95067 c -0.28547,0.44533 -0.77613,0.724 -1.3016,0.744 l -0.0599,0 c -0.50627,0 -0.988,-0.23733 -1.2948,-0.64 l -6.9036,-9.076 -0.10573,-0.16667 4.05986,0 4.1348,5.43467 8.43334,-13.02 c 0.4876,-0.75067 1.4928,-0.96267 2.2448,-0.476 0.7532,0.48667 0.96933,1.49333 0.4808,2.24933"
       style="fill:#da0f64;fill-opacity:1;fill-rule:nonzero;stroke:none"
       id="path24" />
  </g>
</svg>
