<?xml version="1.0" encoding="UTF-8" standalone="no"?>
<!-- Created with Inkscape (http://www.inkscape.org/) -->

<svg
   xmlns:dc="http://purl.org/dc/elements/1.1/"
   xmlns:cc="http://creativecommons.org/ns#"
   xmlns:rdf="http://www.w3.org/1999/02/22-rdf-syntax-ns#"
   xmlns:svg="http://www.w3.org/2000/svg"
   xmlns="http://www.w3.org/2000/svg"
   xmlns:sodipodi="http://sodipodi.sourceforge.net/DTD/sodipodi-0.dtd"
   xmlns:inkscape="http://www.inkscape.org/namespaces/inkscape"
   width="18.30098mm"
   height="18.300417mm"
   viewBox="0 0 64.845991 64.843997"
   id="svg3656"
   version="1.1"
   inkscape:version="0.91 r13725"
   sodipodi:docname="information.svg">
  <defs
     id="defs3658" />
  <sodipodi:namedview
     id="base"
     pagecolor="#ffffff"
     bordercolor="#666666"
     borderopacity="1.0"
     inkscape:pageopacity="0.0"
     inkscape:pageshadow="2"
     inkscape:zoom="0.35"
     inkscape:cx="1033.1373"
     inkscape:cy="-721.86371"
     inkscape:document-units="px"
     inkscape:current-layer="layer1"
     showgrid="false"
     fit-margin-top="0"
     fit-margin-left="0"
     fit-margin-right="0"
     fit-margin-bottom="0"
     inkscape:window-width="1877"
     inkscape:window-height="1056"
     inkscape:window-x="43"
     inkscape:window-y="24"
     inkscape:window-maximized="1" />
  <metadata
     id="metadata3661">
    <rdf:RDF>
      <cc:Work
         rdf:about="">
        <dc:format>image/svg+xml</dc:format>
        <dc:type
           rdf:resource="http://purl.org/dc/dcmitype/StillImage" />
        <dc:title></dc:title>
      </cc:Work>
    </rdf:RDF>
  </metadata>
  <g
     inkscape:label="Calque 1"
     inkscape:groupmode="layer"
     id="layer1"
     transform="translate(658.13728,254.34551)">
    <path
       inkscape:connector-curvature="0"
       d="m -625.71529,-189.50151 c -17.87826,0 -32.42199,-14.544 -32.42199,-32.424 0,-17.876 14.54373,-32.42 32.42199,-32.42 17.87734,0 32.424,14.544 32.424,32.42 0,17.88 -14.54666,32.424 -32.424,32.424 m 0,-62.50267 c -16.58706,0 -30.08079,13.49334 -30.08079,30.07867 0,16.588 13.49373,30.08267 30.08079,30.08267 16.58667,0 30.08267,-13.49467 30.08267,-30.08267 0,-16.58533 -13.496,-30.07867 -30.08267,-30.07867"
       style="fill:#da0f64;fill-opacity:1;fill-rule:nonzero;stroke:none"
       id="path28" />
    <path
       inkscape:connector-curvature="0"
       d="m -629.42595,-237.46418 c 1.08533,1.08134 2.376,1.62267 3.87333,1.62267 1.51867,0 2.816,-0.53467 3.89067,-1.60667 1.07333,-1.07066 1.61066,-2.364 1.61066,-3.87866 0,-1.51467 -0.532,-2.812 -1.59466,-3.89467 -1.064,-1.08133 -2.36534,-1.62267 -3.90667,-1.62267 -1.51867,0 -2.816,0.54134 -3.88933,1.62267 -1.07467,1.08267 -1.612,2.38 -1.612,3.89467 0,1.49333 0.54266,2.78133 1.628,3.86266 m -1.26934,12.42934 0,16.992 -4.78533,0 0,7.26 19.53067,0 0,-7.26 -4.68667,0 0,-24.25067 -14.844,0 0,7.25867 4.78533,0"
       style="fill:#da0f64;fill-opacity:1;fill-rule:nonzero;stroke:none"
       id="path30" />
  </g>
</svg>
