<?xml version="1.0" encoding="UTF-8" standalone="no"?>
<!-- Created with Inkscape (http://www.inkscape.org/) -->

<svg
   xmlns:dc="http://purl.org/dc/elements/1.1/"
   xmlns:cc="http://creativecommons.org/ns#"
   xmlns:rdf="http://www.w3.org/1999/02/22-rdf-syntax-ns#"
   xmlns:svg="http://www.w3.org/2000/svg"
   xmlns="http://www.w3.org/2000/svg"
   xmlns:sodipodi="http://sodipodi.sourceforge.net/DTD/sodipodi-0.dtd"
   xmlns:inkscape="http://www.inkscape.org/namespaces/inkscape"
   width="17.330324mm"
   height="21.816528mm"
   viewBox="0 0 61.40666 77.302659"
   id="svg4303"
   version="1.1"
   inkscape:version="0.91 r13725"
   sodipodi:docname="mairie.svg">
  <defs
     id="defs4305" />
  <sodipodi:namedview
     id="base"
     pagecolor="#ffffff"
     bordercolor="#666666"
     borderopacity="1.0"
     inkscape:pageopacity="0.0"
     inkscape:pageshadow="2"
     inkscape:zoom="0.35"
     inkscape:cx="94.27476"
     inkscape:cy="21.508475"
     inkscape:document-units="px"
     inkscape:current-layer="layer1"
     showgrid="false"
     fit-margin-top="0"
     fit-margin-left="0"
     fit-margin-right="0"
     fit-margin-bottom="0"
     inkscape:window-width="1877"
     inkscape:window-height="1056"
     inkscape:window-x="43"
     inkscape:window-y="24"
     inkscape:window-maximized="1" />
  <metadata
     id="metadata4308">
    <rdf:RDF>
      <cc:Work
         rdf:about="">
        <dc:format>image/svg+xml</dc:format>
        <dc:type
           rdf:resource="http://purl.org/dc/dcmitype/StillImage" />
        <dc:title></dc:title>
      </cc:Work>
    </rdf:RDF>
  </metadata>
  <g
     inkscape:label="Calque 1"
     inkscape:groupmode="layer"
     id="layer1"
     transform="translate(-280.72524,-476.56802)">
    <path
       inkscape:connector-curvature="0"
       d="m 331.4599,540.15361 0,-23.75226 c 0,-1.06 -0.86666,-1.92667 -1.928,-1.92667 l -13.44133,0 c -1.06,0 -1.928,0.86667 -1.928,1.92667 l 0,23.75226 c 0,1.06094 0.868,1.93014 1.928,1.93014 l 8.37467,0 0,-5.08747 c 0,-0.44533 0.36533,-0.80933 0.81066,-0.80933 l 2.50934,0 c 0.44533,0 0.81066,0.364 0.81066,0.80933 l 0,5.08747 0.936,0 c 1.06134,0 1.928,-0.8692 1.928,-1.93014 m -9.97866,-20.63493 c 0,0.428 -0.34667,0.78 -0.77867,0.78 l -2.568,0 c -0.42667,0 -0.78,-0.352 -0.78,-0.78 l 0,-0.99067 c 0,-0.42933 0.35333,-0.77866 0.78,-0.77866 l 2.568,0 c 0.432,0 0.77867,0.34933 0.77867,0.77866 l 0,0.99067 z m 0,4.564 c 0,0.4292 -0.34667,0.7828 -0.77867,0.7828 l -2.568,0 c -0.42667,0 -0.78,-0.3536 -0.78,-0.7828 l 0,-0.99067 c 0,-0.428 0.35333,-0.78 0.78,-0.78 l 2.568,0 c 0.432,0 0.77867,0.352 0.77867,0.78 l 0,0.99067 z m 0,4.56827 c 0,0.42506 -0.34667,0.77706 -0.77867,0.77706 l -2.568,0 c -0.42667,0 -0.78,-0.352 -0.78,-0.77706 l 0,-0.99214 c 0,-0.4324 0.35333,-0.7828 0.78,-0.7828 l 2.568,0 c 0.432,0 0.77867,0.3504 0.77867,0.7828 l 0,0.99214 z m 0,4.56093 c 0,0.4308 -0.34667,0.7812 -0.77867,0.7812 l -2.568,0 c -0.42667,0 -0.78,-0.3504 -0.78,-0.7812 l 0,-0.99067 c 0,-0.42906 0.35333,-0.7796 0.78,-0.7796 l 2.568,0 c 0.432,0 0.77867,0.35054 0.77867,0.7796 l 0,0.99067 z m 0,4.56307 c 0,0.43173 -0.34667,0.78386 -0.77867,0.78386 l -2.568,0 c -0.42667,0 -0.78,-0.35213 -0.78,-0.78386 l 0,-0.98707 c 0,-0.43173 0.35333,-0.7796 0.78,-0.7796 l 2.568,0 c 0.432,0 0.77867,0.34787 0.77867,0.7796 l 0,0.98707 z m 6.78266,-18.25627 c 0,0.428 -0.352,0.78 -0.77466,0.78 l -2.57334,0 c -0.42533,0 -0.776,-0.352 -0.776,-0.78 l 0,-0.99067 c 0,-0.42933 0.35067,-0.77866 0.776,-0.77866 l 2.57334,0 c 0.42266,0 0.77466,0.34933 0.77466,0.77866 l 0,0.99067 z m 0,4.564 c 0,0.4292 -0.352,0.7828 -0.77466,0.7828 l -2.57334,0 c -0.42533,0 -0.776,-0.3536 -0.776,-0.7828 l 0,-0.99067 c 0,-0.428 0.35067,-0.78 0.776,-0.78 l 2.57334,0 c 0.42266,0 0.77466,0.352 0.77466,0.78 l 0,0.99067 z m 0,4.56827 c 0,0.42506 -0.352,0.77706 -0.77466,0.77706 l -2.57334,0 c -0.42533,0 -0.776,-0.352 -0.776,-0.77706 l 0,-0.99214 c 0,-0.4324 0.35067,-0.7828 0.776,-0.7828 l 2.57334,0 c 0.42266,0 0.77466,0.3504 0.77466,0.7828 l 0,0.99214 z m 0,4.56093 c 0,0.4308 -0.352,0.7812 -0.77466,0.7812 l -2.57334,0 c -0.42533,0 -0.776,-0.3504 -0.776,-0.7812 l 0,-0.99067 c 0,-0.42906 0.35067,-0.7796 0.776,-0.7796 l 2.57334,0 c 0.42266,0 0.77466,0.35054 0.77466,0.7796 l 0,0.99067 z m -17.192,6.712 0,-32.97453 c 0,-1.54 -1.26,-2.8 -2.8,-2.8 l -0.0293,0 c -0.016,-1.34 -1.00266,-2.45467 -2.288,-2.676 l 0,-0.47334 c 0,-1.54 -1.26,-2.79866 -2.8,-2.79866 l -0.85333,0 -0.57733,-8.716 c 0,-0.64 -0.21734,-1.15867 -0.492,-1.15867 -0.268,0 -0.492,0.51867 -0.492,1.15867 l -0.57734,8.716 -0.85066,0 c -1.54,0 -2.8,1.25866 -2.8,2.79866 l 0,0.47334 c -1.284,0.22266 -2.26934,1.336 -2.28534,2.676 l -0.0293,0 c -1.54,0 -2.8,1.26 -2.8,2.8 l 0,32.97453 c 0,1.0588 0.868,1.92707 1.928,1.92707 l 3.52534,0 c 0.0427,0.003 0.0853,0.0145 0.12933,0.0145 l 1.808,0 0,-6.6572 c 0,-0.1724 0.14,-0.312 0.312,-0.312 l 4.30133,0 c 0.17334,0 0.312,0.1396 0.312,0.312 l 0,6.6572 1.776,0 c 0.044,0 0.0853,-0.0119 0.12934,-0.0145 l 3.524,0 c 1.06133,0 1.92933,-0.86827 1.92933,-1.92707 m -4.32667,-31.76387 c 0,0.604 -0.532,1.09334 -1.18667,1.09334 l -8.728,0 c -0.65467,0 -1.184,-0.48934 -1.184,-1.09334 0,-0.59866 0.52933,-1.09333 1.184,-1.09333 l 8.728,0 c 0.65467,0 1.18667,0.49467 1.18667,1.09333 m 0,5.33467 c 0,0.60267 -0.532,1.09467 -1.18667,1.09467 l -8.728,0 c -0.65467,0 -1.184,-0.492 -1.184,-1.09467 0,-0.60133 0.52933,-1.09333 1.184,-1.09333 l 8.728,0 c 0.65467,0 1.18667,0.492 1.18667,1.09333 m 0,5.33333 c 0,0.604 -0.532,1.096 -1.18667,1.096 l -8.728,0 c -0.65467,0 -1.184,-0.492 -1.184,-1.096 0,-0.60133 0.52933,-1.092 1.184,-1.092 l 8.728,0 c 0.65467,0 1.18667,0.49067 1.18667,1.092 m 0,5.33747 c 0,0.6 -0.532,1.09067 -1.18667,1.09067 l -8.728,0 c -0.65467,0 -1.184,-0.49067 -1.184,-1.09067 0,-0.60413 0.52933,-1.0948 1.184,-1.0948 l 8.728,0 c 0.65467,0 1.18667,0.49067 1.18667,1.0948 m 0,5.3308 c 0,0.6036 -0.532,1.09427 -1.18667,1.09427 l -8.728,0 c -0.65467,0 -1.184,-0.49067 -1.184,-1.09427 0,-0.6 0.52933,-1.09227 1.184,-1.09227 l 8.728,0 c 0.65467,0 1.18667,0.49227 1.18667,1.09227"
       style="fill:#da0f64;fill-opacity:1;fill-rule:nonzero;stroke:none"
       id="path58" />
    <path
       inkscape:connector-curvature="0"
       d="m 293.95457,477.56802 c -0.5,0.001 -12.22933,0.17866 -12.22933,12.228 l 0,50.84666 c 0.001,0.49733 0.17733,12.228 12.228,12.228 l 34.94933,0 c 0.49867,-10e-4 12.22933,-0.1776 12.22933,-12.228 l 0,-50.84666 c -0.003,-0.49734 -0.17866,-12.228 -12.22933,-12.228 l -34.94933,0 0.001,0 z"
       style="fill:none;stroke:#da0f64;stroke-width:2;stroke-linecap:butt;stroke-linejoin:miter;stroke-miterlimit:4;stroke-dasharray:none;stroke-opacity:1"
       id="path60" />
  </g>
</svg>
