<?xml version="1.0" encoding="UTF-8" standalone="no"?>
<!-- Created with Inkscape (http://www.inkscape.org/) -->

<svg
   xmlns:dc="http://purl.org/dc/elements/1.1/"
   xmlns:cc="http://creativecommons.org/ns#"
   xmlns:rdf="http://www.w3.org/1999/02/22-rdf-syntax-ns#"
   xmlns:svg="http://www.w3.org/2000/svg"
   xmlns="http://www.w3.org/2000/svg"
   xmlns:xlink="http://www.w3.org/1999/xlink"
   xmlns:sodipodi="http://sodipodi.sourceforge.net/DTD/sodipodi-0.dtd"
   xmlns:inkscape="http://www.inkscape.org/namespaces/inkscape"
   width="18.301168mm"
   height="18.300417mm"
   viewBox="0 0 64.84666 64.843997"
   id="svg4815"
   version="1.1"
   inkscape:version="0.91 r13725"
   sodipodi:docname="naissance.svg">
  <defs
     id="defs4817" />
  <sodipodi:namedview
     id="base"
     pagecolor="#ffffff"
     bordercolor="#666666"
     borderopacity="1.0"
     inkscape:pageopacity="0.0"
     inkscape:pageshadow="2"
     inkscape:zoom="0.35"
     inkscape:cx="-124.00524"
     inkscape:cy="-941.86371"
     inkscape:document-units="px"
     inkscape:current-layer="layer1"
     showgrid="false"
     fit-margin-top="0"
     fit-margin-left="0"
     fit-margin-right="0"
     fit-margin-bottom="0"
     inkscape:window-width="1920"
     inkscape:window-height="1056"
     inkscape:window-x="1920"
     inkscape:window-y="24"
     inkscape:window-maximized="1" />
  <metadata
     id="metadata4820">
    <rdf:RDF>
      <cc:Work
         rdf:about="">
        <dc:format>image/svg+xml</dc:format>
        <dc:type
           rdf:resource="http://purl.org/dc/dcmitype/StillImage" />
        <dc:title></dc:title>
      </cc:Work>
    </rdf:RDF>
  </metadata>
  <g
     inkscape:label="Calque 1"
     inkscape:groupmode="layer"
     id="layer1"
     transform="translate(-499.00524,474.34551)">
    <use
       transform="matrix(0.13333333,0,0,-0.13333333,-66.53403,210.4606)"
       id="use4214"
       xlink:href="#path34"
       y="0"
       x="0"
       width="100%"
       height="100%" />
    <use
       transform="matrix(0.13333333,0,0,-0.13333333,-66.53403,210.4606)"
       id="use4216"
       xlink:href="#path36"
       y="0"
       x="0"
       width="100%"
       height="100%" />
    <use
       transform="matrix(0.13333333,0,0,-0.13333333,-66.53403,210.4606)"
       id="use4218"
       xlink:href="#path38"
       y="0"
       x="0"
       width="100%"
       height="100%" />
    <path
       inkscape:connector-curvature="0"
       id="path34"
       style="fill:#da0f64;fill-opacity:1;fill-rule:nonzero;stroke:none"
       d="m 531.42657,-409.50151 c -17.87733,0 -32.42133,-14.544 -32.42133,-32.424 0,-17.876 14.544,-32.42 32.42133,-32.42 17.87733,0 32.42533,14.544 32.42533,32.42 0,17.88 -14.548,32.424 -32.42533,32.424 m 0,-62.50267 c -16.58533,0 -30.08,13.49334 -30.08,30.07867 0,16.588 13.49467,30.08267 30.08,30.08267 16.58933,0 30.084,-13.49467 30.084,-30.08267 0,-16.58533 -13.49467,-30.07867 -30.084,-30.07867" />
    <path
       inkscape:connector-curvature="0"
       id="path36"
       style="fill:#da0f64;fill-opacity:1;fill-rule:nonzero;stroke:none"
       d="m 528.3999,-438.19218 c -1.33333,1.00267 -2.62666,2.06934 -4.01466,2.98667 -1.092,0.72133 -2.256,1.584 -3.48134,1.76933 -0.81866,0.12667 -1.88,-0.72666 -2.64133,-1.368 -0.164,-0.13733 0.3,-1.48133 0.792,-1.872 6.51733,-5.2 12.37467,-11.04133 17.57067,-17.564 0.404,-0.50933 1.932,-0.89866 2.02266,-0.756 0.57067,0.884 1.45067,2.164 1.16134,2.88934 -0.716,1.80533 -1.97334,3.40266 -3.07467,5.04266 -0.59733,0.88534 -1.324,1.68267 -2.396,3.02534 5.07067,-1.34534 9.31733,-1.18934 12.85733,2.22933 2.16,2.08533 3.304,4.652 3.38267,7.652 0.16,5.98933 -4.42267,11.05733 -10.28267,11.37333 -4.04266,0.21867 -7.31866,-1.304 -9.752,-4.53466 -2.42933,-3.22134 -2.40133,-6.89867 -1.52666,-10.71067 -0.20667,-0.0547 -0.41334,-0.10933 -0.61734,-0.16267 m 19.36267,4.40267 c 0.0267,-4.624 -3.87467,-8.51333 -8.40933,-8.29867 -0.64534,0.028 -1.44,0.31467 -1.876,0.76134 -1.764,1.81333 -3.46934,3.69066 -5.076,5.64266 -0.56534,0.68667 -1.14134,1.67734 -1.10134,2.49734 0.22534,4.34533 4.07734,7.75066 8.39334,7.61866 4.49866,-0.13866 8.04666,-3.75066 8.06933,-8.22133" />
    <path
       inkscape:connector-curvature="0"
       id="path38"
       style="fill:#da0f64;fill-opacity:1;fill-rule:nonzero;stroke:none"
       d="m 526.13057,-444.00951 c -2.50667,-0.668 -4.39333,-1.412 -6.33867,-1.64 -4.52933,-0.52933 -7.608,-3.64133 -7.51866,-7.92933 0.084,-4.07067 3.39066,-7.39734 7.45866,-7.504 4.26,-0.11067 7.45467,3.01733 7.96667,7.492 0.22267,1.95333 0.94533,3.84933 1.61867,6.46 -0.872,0.852 -2.27334,2.22533 -3.18667,3.12133 m -6.12133,-15.23067 c -3.74134,-1.36933 -7.34267,2.24 -6.89467,6.448 0.32267,3.05334 3.132,5.85334 5.96133,5.80934 0.508,-0.008 1.012,-0.54134 1.51734,-0.832 -0.38534,-0.34534 -0.74,-0.73734 -1.16667,-1.02267 -0.22133,-0.148 -0.572,-0.0933 -0.85467,-0.16533 -2.33733,-0.59067 -3.9,-2.43334 -3.976,-4.684 -0.076,-2.19067 1.40934,-4.27334 3.604,-5.02267 0.59467,-0.20533 1.20667,-0.356 1.80934,-0.53067" />
  </g>
</svg>
