<?xml version="1.0" encoding="UTF-8" standalone="no"?>
<!-- Created with Inkscape (http://www.inkscape.org/) -->

<svg
   xmlns:dc="http://purl.org/dc/elements/1.1/"
   xmlns:cc="http://creativecommons.org/ns#"
   xmlns:rdf="http://www.w3.org/1999/02/22-rdf-syntax-ns#"
   xmlns:svg="http://www.w3.org/2000/svg"
   xmlns="http://www.w3.org/2000/svg"
   xmlns:sodipodi="http://sodipodi.sourceforge.net/DTD/sodipodi-0.dtd"
   xmlns:inkscape="http://www.inkscape.org/namespaces/inkscape"
   width="15.59703mm"
   height="19.633993mm"
   viewBox="0 0 55.265066 69.569267"
   id="svg4438"
   version="1.1"
   inkscape:version="0.91 r13725"
   sodipodi:docname="people.svg">
  <defs
     id="defs4440" />
  <sodipodi:namedview
     id="base"
     pagecolor="#ffffff"
     bordercolor="#666666"
     borderopacity="1.0"
     inkscape:pageopacity="0.0"
     inkscape:pageshadow="2"
     inkscape:zoom="0.35"
     inkscape:cx="285.48967"
     inkscape:cy="-405.21536"
     inkscape:document-units="px"
     inkscape:current-layer="layer1"
     showgrid="false"
     fit-margin-top="0"
     fit-margin-left="0"
     fit-margin-right="0"
     fit-margin-bottom="0"
     inkscape:window-width="1920"
     inkscape:window-height="1056"
     inkscape:window-x="1920"
     inkscape:window-y="24"
     inkscape:window-maximized="1" />
  <metadata
     id="metadata4443">
    <rdf:RDF>
      <cc:Work
         rdf:about="">
        <dc:format>image/svg+xml</dc:format>
        <dc:type
           rdf:resource="http://purl.org/dc/dcmitype/StillImage" />
        <dc:title></dc:title>
      </cc:Work>
    </rdf:RDF>
  </metadata>
  <g
     inkscape:label="Calque 1"
     inkscape:groupmode="layer"
     id="layer1"
     transform="translate(-89.510325,-57.577574)">
    <path
       inkscape:connector-curvature="0"
       d="m 131.05099,94.372373 -1.95893,-0.804133 1.8172,-1.083867 c 1.56773,-0.944267 2.56146,-2.532266 2.56146,-4.3136 -0.005,-2.788 -2.47866,-5.159866 -5.67346,-5.165066 -3.1968,0.0052 -5.6676,2.377066 -5.67547,5.165066 0,1.781334 0.99533,3.369333 2.56253,4.3136 l 1.8208,1.083867 -1.9636,0.804133 c -0.2828,0.1156 -0.55826,0.2516 -0.83226,0.3968 -0.3104,0.169867 -0.61294,0.357333 -0.90934,0.561467 -0.3,0.2084 -0.59266,0.4256 -0.87133,0.673466 -2.33493,2.042667 -3.886,5.298404 -3.88187,8.998404 -9.3e-4,0.66306 0.0496,1.30573 0.1428,1.93653 0.44534,0.54213 0.926,1.04107 1.43854,1.5052 0.2708,0.24267 0.55466,0.4692 0.84373,0.688 0.29733,0.2224 0.60053,0.436 0.91253,0.6344 1.89534,1.18547 4.08227,1.86307 6.41294,1.86307 3.80426,0 7.22813,-1.7964 9.60573,-4.69067 0.0953,-0.6308 0.1428,-1.27347 0.1428,-1.93653 0.004,-4.9572 -2.77347,-9.115604 -6.4948,-10.630137 m -10.08707,-0.320267 c -1.5812,-2.710533 -3.88013,-4.802666 -6.5572,-5.895866 l -1.9604,-0.8084 1.8176,-1.083867 c 2.16574,-1.302533 3.55467,-3.511866 3.55467,-5.9984 -0.009,-3.892133 -3.44893,-7.159866 -7.84267,-7.169199 -4.39733,0.0093 -7.83748,3.277066 -7.84633,7.169199 0,2.486534 1.3906,4.695867 3.55207,5.9984 l 1.82186,1.083867 -1.962,0.8084 c -5.06557,2.067733 -8.805156,7.6916 -8.801502,14.37187 0,0.92546 0.07187,1.82653 0.208853,2.70253 3.207289,3.94533 7.853589,6.39907 13.027049,6.39907 2.8052,0 5.45267,-0.7256 7.8016,-2.0188 -0.5052,-0.488 -0.9828,-1.01094 -1.42133,-1.56307 l -0.16827,-0.21813 -0.0469,-0.26147 c -0.14106,-0.8324 -0.2156,-1.68387 -0.2156,-2.56573 0.002,-4.4968 1.96254,-8.510404 5.03854,-10.950404"
       style="fill:#da0f64;fill-opacity:1;fill-rule:nonzero;stroke:none"
       id="path90" />
    <path
       inkscape:connector-curvature="0"
       d="m 101.41658,58.477574 c -0.44948,0.0011 -11.006255,0.158267 -11.006255,11.0052 l 0,45.759896 c 0.001,0.44688 0.159896,11.00417 11.004695,11.00417 l 31.45517,0 c 0.448,0 11.0052,-0.15886 11.0052,-11.00417 l 0,-45.759896 c -0.001,-0.447867 -0.15987,-11.0052 -11.0052,-11.0052 l -31.45517,0 0.002,0 z"
       style="fill:none;stroke:#da0f64;stroke-width:1.79999995;stroke-linecap:butt;stroke-linejoin:miter;stroke-miterlimit:4;stroke-dasharray:none;stroke-opacity:1"
       id="path92" />
  </g>
</svg>
