<?xml version="1.0" encoding="UTF-8" standalone="no"?>
<svg
   xmlns:dc="http://purl.org/dc/elements/1.1/"
   xmlns:cc="http://creativecommons.org/ns#"
   xmlns:rdf="http://www.w3.org/1999/02/22-rdf-syntax-ns#"
   xmlns:svg="http://www.w3.org/2000/svg"
   xmlns="http://www.w3.org/2000/svg"
   viewBox="0 0 608.49335 273.70667"
   height="273.70667"
   width="608.49335"
   xml:space="preserve"
   version="1.1"
   id="svg2"><metadata
     id="metadata8"><rdf:RDF><cc:Work
         rdf:about=""><dc:format>image/svg+xml</dc:format><dc:type
           rdf:resource="http://purl.org/dc/dcmitype/StillImage" /></cc:Work></rdf:RDF></metadata><defs
     id="defs6"><clipPath
       id="clipPath18"
       clipPathUnits="userSpaceOnUse"><path
         id="path20"
         d="M 0,2052.84 0,0 l 4563.73,0 0,2052.84 -4563.73,0 z" /></clipPath></defs><g
     transform="matrix(1.3333333,0,0,-1.3333333,0,273.70667)"
     id="g10"><g
       transform="scale(0.1)"
       id="g12"><g
         id="g14"><g
           clip-path="url(#clipPath18)"
           id="g16"><path
             id="path22"
             style="fill:#da0f64;fill-opacity:1;fill-rule:nonzero;stroke:none"
             d="m 249.91,1566.51 c -134.082,0 -243.15609,109.08 -243.15609,243.18 0,134.07 109.07409,243.15 243.15609,243.15 134.082,0 243.188,-109.08 243.188,-243.15 0,-134.1 -109.106,-243.18 -243.188,-243.18 m 0,468.77 c -124.398,0 -225.5975,-101.2 -225.5975,-225.59 0,-124.41 101.1995,-225.62 225.5975,-225.62 124.414,0 225.625,101.21 225.625,225.62 0,124.39 -101.211,225.59 -225.625,225.59" /><path
             id="path24"
             style="fill:#da0f64;fill-opacity:1;fill-rule:nonzero;stroke:none"
             d="m 290.027,1852.72 c 20.285,12.16 33.75,33.23 33.75,57.29 0,37.7 -33.074,68.26 -73.867,68.26 -40.789,0 -73.859,-30.56 -73.859,-68.26 0,-24.06 13.461,-45.13 33.773,-57.29 -45.762,-18.75 -78.461,-68.69 -78.461,-127.36 0,-8.91 0.739,-17.66 2.199,-26.14 28.098,-35.6 69.813,-58.12 116.348,-58.12 46.543,0 88.254,22.52 116.367,58.12 1.426,8.48 2.192,17.23 2.192,26.14 0,58.67 -32.715,108.61 -78.442,127.36 m 31.477,-48.95 -72.66,-112.13 c -2.141,-3.34 -5.821,-5.43 -9.762,-5.58 l -0.449,0 c -3.797,0 -7.41,1.78 -9.711,4.8 l -51.777,68.07 -0.793,1.25 30.449,0 31.011,-40.76 63.25,97.65 c 3.657,5.63 11.196,7.22 16.836,3.57 5.649,-3.65 7.27,-11.2 3.606,-16.87" /><path
             id="path26"
             style="fill:#da0f64;fill-opacity:1;fill-rule:nonzero;stroke:none"
             d="m 4503.4,1998.68 c -35.34,35.33 -77.78,53.01 -127.34,53.01 -49.57,0 -92.01,-17.68 -127.35,-53.01 -35.34,-35.35 -53.02,-78 -53.02,-127.92 l 0,-123.31 c 0,-49.55 17.68,-92 53.02,-127.34 34.95,-34.97 77.41,-52.45 127.35,-52.45 48.4,0 90.26,17.09 125.61,51.29 l -27.66,25.92 c -28.43,-26.11 -61.08,-39.18 -97.95,-39.18 -39.19,0 -72.8,13.84 -100.84,41.5 -27.66,28.03 -41.49,61.65 -41.49,100.84 l 0,122.73 c 0,39.18 13.83,72.6 41.49,100.26 28.04,28.03 61.65,42.07 100.84,42.07 39.18,0 72.6,-14.04 100.26,-42.07 28.03,-27.66 42.06,-61.08 42.06,-100.26 l 0,-140.03 c 0,-4.23 -0.21,-6.53 -0.58,-6.91 l 0.58,0 c -0.39,-11.92 -6.72,-17.87 -19.01,-17.87 -12.68,0 -19.02,6.34 -19.02,19.03 l 0,65.68 c 0,27.28 -9.79,50.7 -29.39,70.29 -19.59,19.6 -43.22,29.4 -70.87,29.4 -27.29,0 -50.71,-9.8 -70.3,-29.4 -19.58,-19.59 -29.38,-43.01 -29.38,-70.29 l 0,-23.05 c 0,-27.65 9.8,-51.27 29.38,-70.88 19.59,-19.58 43.01,-29.38 70.3,-29.38 27.65,0 50.9,9.42 69.72,28.23 10.75,-18.81 27.27,-28.23 49.56,-28.23 17.28,0 31.49,6.35 42.64,19.01 11.52,13.06 16.32,28.25 14.41,45.52 l 0,4.61 0.56,134.27 -0.56,0.58 c 0,49.55 -17.68,91.99 -53.02,127.34 m -179.78,-184.1 c 3.07,7.49 7.39,14.01 12.97,19.59 5.56,5.56 11.99,9.88 19.3,12.97 7.28,3.06 15.36,4.61 24.2,4.61 8.45,0 16.42,-1.64 23.9,-4.91 7.5,-3.27 14.03,-7.58 19.59,-12.96 5.58,-5.39 10,-11.81 13.27,-19.3 3.26,-7.49 4.9,-15.47 4.9,-23.92 l 0,-23.05 c 0,-8.83 -1.64,-17 -4.9,-24.49 -3.27,-7.49 -7.69,-13.92 -13.27,-19.3 -5.56,-5.38 -12.09,-9.7 -19.59,-12.96 -7.48,-3.27 -15.45,-4.91 -23.9,-4.91 -8.45,0 -16.43,1.64 -23.91,4.91 -7.49,3.26 -13.92,7.58 -19.31,12.96 -5.38,5.38 -9.7,11.81 -12.95,19.3 -3.29,7.49 -4.91,15.66 -4.91,24.49 l 0,23.05 c 0,8.45 1.53,16.43 4.61,23.92" /><path
             id="path28"
             style="fill:#da0f64;fill-opacity:1;fill-rule:nonzero;stroke:none"
             d="m 1075.2,1566.51 c -134.087,0 -243.165,109.08 -243.165,243.18 0,134.07 109.078,243.15 243.165,243.15 134.08,0 243.18,-109.08 243.18,-243.15 0,-134.1 -109.1,-243.18 -243.18,-243.18 m 0,468.77 c -124.403,0 -225.606,-101.2 -225.606,-225.59 0,-124.41 101.203,-225.62 225.606,-225.62 124.4,0 225.62,101.21 225.62,225.62 0,124.39 -101.22,225.59 -225.62,225.59" /><path
             id="path30"
             style="fill:#da0f64;fill-opacity:1;fill-rule:nonzero;stroke:none"
             d="m 1047.37,1926.23 c 8.14,-8.11 17.82,-12.17 29.05,-12.17 11.39,0 21.12,4.01 29.18,12.05 8.05,8.03 12.08,17.73 12.08,29.09 0,11.36 -3.99,21.09 -11.96,29.21 -7.98,8.11 -17.74,12.17 -29.3,12.17 -11.39,0 -21.12,-4.06 -29.17,-12.17 -8.06,-8.12 -12.09,-17.85 -12.09,-29.21 0,-11.2 4.07,-20.86 12.21,-28.97 m -9.52,-93.22 0,-127.44 -35.89,0 0,-54.45 146.48,0 0,54.45 -35.15,0 0,181.88 -111.33,0 0,-54.44 35.89,0" /><path
             id="path32"
             style="fill:#da0f64;fill-opacity:1;fill-rule:nonzero;stroke:none"
             d="m 3551.04,1584.07 c -124.39,0 -225.59,101.21 -225.59,225.62 0,124.39 101.2,225.59 225.59,225.59 124.42,0 225.63,-101.2 225.63,-225.59 0,-124.41 -101.21,-225.62 -225.63,-225.62 z m 0,468.77 c -134.07,0 -243.15,-109.08 -243.15,-243.15 0,-134.1 109.08,-243.18 243.15,-243.18 134.11,0 243.19,109.08 243.19,243.18 0,134.07 -109.08,243.15 -243.19,243.15 z m 31.35,-376.88 c -18.86,0 -36.26,6.22 -50.42,16.6 60.21,6.16 107.34,57.16 107.34,118.96 0,4.91 -0.39,9.73 -0.98,14.49 18.09,-15.69 29.58,-38.78 29.58,-64.54 0,-47.15 -38.36,-85.51 -85.52,-85.51 z m -78.43,51.57 c -4.54,10.41 -7.08,21.88 -7.08,33.94 0,47.16 38.36,85.53 85.51,85.53 5.39,0 10.66,-0.57 15.77,-1.52 4.53,-10.42 7.06,-21.89 7.06,-33.96 0,-47.15 -38.35,-85.51 -85.5,-85.51 -5.39,0 -10.65,0.56 -15.76,1.52 z m -40.18,19.46 c -18.08,15.69 -29.57,38.77 -29.57,64.53 0,47.16 38.36,85.52 85.51,85.52 18.86,0 36.27,-6.21 50.42,-16.6 -60.21,-6.16 -107.33,-57.17 -107.33,-118.97 0,-4.91 0.39,-9.72 0.97,-14.48 z m 157.42,127.49 c -16.52,26.54 -43.16,46.03 -74.43,53.34 l 17.81,40.06 c 0.94,2.11 0.74,4.55 -0.52,6.48 -1.26,1.94 -3.41,3.11 -5.71,3.11 l -77.27,0 c -2.32,0 -4.48,-1.18 -5.74,-3.13 -1.25,-1.95 -1.42,-4.4 -0.47,-6.51 l 18.11,-39.83 c -53.09,-12.2 -92.85,-59.73 -92.85,-116.48 0,-52.34 33.86,-96.83 80.78,-112.99 21.13,-33.94 58.66,-56.64 101.48,-56.64 65.94,0 119.59,53.65 119.59,119.58 0,52.35 -33.85,96.84 -80.78,113.01" /><path
             id="path34"
             style="fill:#da0f64;fill-opacity:1;fill-rule:nonzero;stroke:none"
             d="m 2725.76,1566.51 c -134.08,0 -243.16,109.08 -243.16,243.18 0,134.07 109.08,243.15 243.16,243.15 134.08,0 243.19,-109.08 243.19,-243.15 0,-134.1 -109.11,-243.18 -243.19,-243.18 m 0,468.77 c -124.39,0 -225.6,-101.2 -225.6,-225.59 0,-124.41 101.21,-225.62 225.6,-225.62 124.42,0 225.63,101.21 225.63,225.62 0,124.39 -101.21,225.59 -225.63,225.59" /><path
             id="path36"
             style="fill:#da0f64;fill-opacity:1;fill-rule:nonzero;stroke:none"
             d="m 2703.06,1781.69 c -10,-7.52 -19.7,-15.52 -30.11,-22.4 -8.19,-5.41 -16.92,-11.88 -26.11,-13.27 -6.14,-0.95 -14.1,5.45 -19.81,10.26 -1.23,1.03 2.25,11.11 5.94,14.04 48.88,39 92.81,82.81 131.78,131.73 3.03,3.82 14.49,6.74 15.17,5.67 4.28,-6.63 10.88,-16.23 8.71,-21.67 -5.37,-13.54 -14.8,-25.52 -23.06,-37.82 -4.48,-6.64 -9.93,-12.62 -17.97,-22.69 38.03,10.09 69.88,8.92 96.43,-16.72 16.2,-15.64 24.78,-34.89 25.37,-57.39 1.2,-44.92 -33.17,-82.93 -77.12,-85.3 -30.32,-1.64 -54.89,9.78 -73.14,34.01 -18.22,24.16 -18.01,51.74 -11.45,80.33 -1.55,0.41 -3.1,0.82 -4.63,1.22 m 145.22,-33.02 c 0.2,34.68 -29.06,63.85 -63.07,62.24 -4.84,-0.21 -10.8,-2.36 -14.07,-5.71 -13.23,-13.6 -26.02,-27.68 -38.07,-42.32 -4.24,-5.15 -8.56,-12.58 -8.26,-18.73 1.69,-32.59 30.58,-58.13 62.95,-57.14 33.74,1.04 60.35,28.13 60.52,61.66" /><path
             id="path38"
             style="fill:#da0f64;fill-opacity:1;fill-rule:nonzero;stroke:none"
             d="m 2686.04,1825.32 c -18.8,5.01 -32.95,10.59 -47.54,12.3 -33.97,3.97 -57.06,27.31 -56.39,59.47 0.63,30.53 25.43,55.48 55.94,56.28 31.95,0.83 55.91,-22.63 59.75,-56.19 1.67,-14.65 7.09,-28.87 12.14,-48.45 -6.54,-6.39 -17.05,-16.69 -23.9,-23.41 m -45.91,114.23 c -28.06,10.27 -55.07,-16.8 -51.71,-48.36 2.42,-22.9 23.49,-43.9 44.71,-43.57 3.81,0.06 7.59,4.06 11.38,6.24 -2.89,2.59 -5.55,5.53 -8.75,7.67 -1.66,1.11 -4.29,0.7 -6.41,1.24 -17.53,4.43 -29.25,18.25 -29.82,35.13 -0.57,16.43 10.57,32.05 27.03,37.67 4.46,1.54 9.05,2.67 13.57,3.98" /><path
             id="path40"
             style="fill:#da0f64;fill-opacity:1;fill-rule:nonzero;stroke:none"
             d="m 1900.47,1566.51 c -134.08,0 -243.15,109.08 -243.15,243.18 0,134.07 109.07,243.15 243.15,243.15 134.1,0 243.19,-109.08 243.19,-243.15 0,-134.1 -109.09,-243.18 -243.19,-243.18 m 0,468.77 c -124.39,0 -225.59,-101.2 -225.59,-225.59 0,-124.41 101.2,-225.62 225.59,-225.62 124.42,0 225.63,101.21 225.63,225.62 0,124.39 -101.21,225.59 -225.63,225.59" /><path
             id="path42"
             style="fill:#da0f64;fill-opacity:1;fill-rule:nonzero;stroke:none"
             d="m 1885.87,1767.53 c 22.69,42.31 45.39,84.63 68.08,126.95 -0.41,0.55 -0.81,1.07 -1.22,1.6 -12.93,-6.35 -25.87,-12.69 -38.84,-19.06 -0.41,0.99 -0.86,1.56 -0.72,1.84 9.2,18.09 18.3,36.25 27.87,54.17 1.28,2.42 4.75,4.16 7.57,5.18 24.75,8.95 52.61,0.49 70.62,-21.21 25.92,-31.19 25.86,-79.38 0.23,-110.81 -16.24,-19.92 -32.1,-40.16 -47.89,-60.44 -18.51,-23.76 -36.74,-47.74 -55.13,-71.59 -11.14,-14.45 -21.18,-14.19 -32.3,0.31 -30.99,40.43 -62.08,80.78 -93.19,121.12 -2.09,2.72 -4.51,5.16 -6.81,7.7 -30.69,33.58 -28.79,89.6 4.08,120.5 24.26,22.78 59.72,23.87 85.09,2.79 4.14,-3.44 5.86,-6.98 5.29,-12.59 -2.35,-23.38 -4.22,-46.83 -6.23,-70.24 -0.24,-2.86 -0.29,-5.73 -0.5,-10.11 11,5.27 20.77,9.97 32.45,15.58 -7.06,-28.2 -13.66,-54.57 -20.27,-80.95 0.61,-0.24 1.21,-0.5 1.82,-0.74" /><path
             id="path44"
             style="fill:#da0f64;fill-opacity:1;fill-rule:nonzero;stroke:none"
             d="m 249.906,823.738 c -134.082,0 -243.156,109.09 -243.156,243.182 0,134.07 109.074,243.15 243.156,243.15 134.086,0 243.184,-109.08 243.184,-243.15 0,-134.092 -109.098,-243.182 -243.184,-243.182 m 0,468.772 c -124.398,0 -225.6013,-101.2 -225.6013,-225.59 0,-124.408 101.2033,-225.619 225.6013,-225.619 124.41,0 225.625,101.211 225.625,225.619 0,124.39 -101.215,225.59 -225.625,225.59" /><path
             id="path46"
             style="fill:#da0f64;fill-opacity:1;fill-rule:nonzero;stroke:none"
             d="m 126.035,1107.04 c 5.086,0.16 9.668,-1.47 14.16,-3.56 9.153,-4.25 16.68,-10.73 24.02,-17.47 3.082,-2.81 6.066,-5.72 9.59,-9.06 3.531,31.35 0.078,60.81 -16.434,87.94 0.262,0.28 0.524,0.55 0.793,0.84 3.801,-0.94 7.68,-1.66 11.402,-2.87 10.516,-3.41 19.559,-9.56 28.34,-16.08 5.457,-4.04 10.821,-8.21 16.61,-12.63 -0.446,3.95 -1.102,7.53 -1.192,11.15 -0.219,9.43 -0.109,18.89 -0.273,28.34 -0.27,15.88 7.011,29.34 13.75,42.93 3.851,7.77 8.261,15.25 12.422,22.86 0.218,0.4 0.523,0.76 1.121,1.61 0.863,-5.39 1.492,-10.25 2.437,-15.06 3.364,-17.06 9.02,-33.4 15.766,-49.39 7.598,-18.04 12.586,-36.79 14.949,-56.23 0.852,-7.04 1.68,-14.07 3.219,-21.55 2.48,3.15 5.078,6.21 7.41,9.46 6.91,9.61 11.59,20.18 14.371,31.71 0.906,3.79 3.129,7.3 4.906,10.84 0.582,1.14 1.672,2.04 2.891,3.47 0.23,-1.13 0.43,-1.67 0.43,-2.19 0.031,-11.17 2.082,-21.96 4.847,-32.8 2.614,-10.21 3.817,-20.83 5.192,-31.33 1.004,-7.71 1.281,-15.52 1.898,-23.3 0.035,-0.46 0.235,-0.91 0.563,-2.08 2.195,1.59 4.472,2.65 5.922,4.39 7.019,8.36 13.992,16.76 20.609,25.43 4.301,5.61 5.777,12.46 7.152,19.61 0.547,-1.2 1.367,-2.35 1.621,-3.61 1.926,-9.8 4.067,-19.61 5.535,-29.49 1.614,-10.88 -1.507,-21.46 -3.128,-32.1 -0.84,-5.47 -2.098,-10.88 -3.141,-16.32 -0.098,-0.54 0.051,-1.12 0.09,-1.82 18.937,7.18 38.429,11.4 59.023,14.92 -1.133,-1.28 -1.613,-1.96 -2.222,-2.5 -16.93,-15.34 -26.071,-34.84 -30.641,-56.862 -1.801,-8.636 -3.309,-17.449 -6.211,-25.738 -5.297,-15.172 -15.687,-26.941 -27.129,-37.941 -12.508,-12.008 -27.859,-18.438 -44.141,-22.848 -8.777,-2.383 -17.871,-3.981 -26.917,-4.84 -5.231,-0.492 -10.661,1.18 -16.051,2.34 24.91,14.961 46.566,32.367 55.609,61.098 -0.219,0.382 -0.437,0.75 -0.648,1.121 -2.289,-0.5 -4.7,-0.719 -6.84,-1.59 -6.582,-2.66 -13.063,-5.602 -19.578,-8.43 -0.699,-0.308 -1.422,-0.551 -2.817,-1.109 10.742,22.168 23.465,43.051 24.453,68.809 -7.308,-2.65 -12.468,-7.17 -17.39,-11.91 -4.945,-4.802 -9.602,-9.891 -14.602,-15.059 2.395,18.909 3.426,37.599 2.844,57.289 -11.68,-6.55 -17.699,-17.13 -24.609,-27.14 -0.301,16.42 -6.442,30.89 -13.594,46.02 -7.32,-12.62 -8.676,-26.19 -12.047,-39.67 -6.305,9.97 -9.969,21.26 -20.437,28.65 -3.633,-25.69 -6.524,-50.52 2.187,-75.122 -0.25,-0.188 -0.508,-0.359 -0.762,-0.539 -0.711,0.641 -1.578,1.172 -2.109,1.93 -6.942,10.082 -16.141,17.652 -26.422,24.051 -1.227,0.77 -2.477,1.5 -4.41,2.66 -1.375,-17.872 -1.195,-35.032 5.992,-51.352 -5.98,2.102 -11.75,4.133 -17.512,6.152 -0.332,-0.3 -0.648,-0.582 -0.968,-0.859 2.371,-5.152 4.378,-10.492 7.171,-15.371 11.661,-20.442 29.411,-33.988 50.45,-43.641 4.39,-2.019 8.847,-3.871 13.226,-6.379 -1.636,-0.269 -3.273,-0.621 -4.933,-0.769 -32.5,-3.153 -61.157,5.859 -85.403,27.801 -9.398,8.507 -15.257,19.636 -19.992,31.296 -5.629,13.872 -8.808,28.391 -10.941,43.153 -1.965,13.709 -4.77,27.209 -10.965,39.789 -3.539,7.17 -8.4142,13.07 -14.9532,17.63 -0.7696,0.54 -1.4883,1.15 -2.6719,2.05 3.582,1.55 6.8047,2.05 10.25,1.64 7.7301,-0.92 14.6831,-4.06 21.0581,-8.2 6.946,-4.49 13.446,-9.66 20.133,-14.54 0.782,-0.57 1.575,-1.13 2.328,-1.68 0.243,0.17 0.504,0.27 0.504,0.36 0.758,17.69 0.66,35.29 -4.101,52.53 -2.02,7.35 -5.239,14.03 -10.551,19.6 -0.199,0.22 -0.371,0.45 -0.496,0.72 -0.07,0.14 -0.012,0.37 -0.012,0.84" /><path
             id="path48"
             style="fill:#da0f64;fill-opacity:1;fill-rule:nonzero;stroke:none"
             d="m 1071.22,823.738 c -134.079,0 -243.158,109.09 -243.158,243.182 0,134.07 109.079,243.15 243.158,243.15 134.09,0 243.18,-109.08 243.18,-243.15 0,-134.092 -109.09,-243.182 -243.18,-243.182 m 0,468.772 c -124.4,0 -225.599,-101.2 -225.599,-225.59 0,-124.408 101.199,-225.619 225.599,-225.619 124.41,0 225.63,101.211 225.63,225.619 0,124.39 -101.22,225.59 -225.63,225.59" /><path
             id="path50"
             style="fill:#da0f64;fill-opacity:1;fill-rule:nonzero;stroke:none"
             d="m 1169.71,981.168 c -39.78,37.022 -86.34,53.562 -139.4,54.052 -0.18,1.87 -0.48,3.51 -0.49,5.16 -0.02,28.38 0.01,56.75 -0.04,85.12 -0.01,3.89 -0.32,6.95 5.42,7.05 50.69,0.87 95.24,17.6 132.77,52.12 0.28,0.26 0.72,0.36 1.74,0.85 l 0,-204.352" /><path
             id="path52"
             style="fill:#da0f64;fill-opacity:1;fill-rule:nonzero;stroke:none"
             d="m 1018.62,1035.22 -25.686,0 c -14.707,0 -29.418,0.12 -44.118,-0.09 -3.687,-0.06 -5.597,1.19 -6.55,4.62 -2.129,7.69 -4.7,15.28 -6.43,23.07 -0.84,3.81 -2.391,5.04 -6.051,4.73 -2.566,-0.21 -5.211,-0.14 -7.769,0.19 -6.239,0.77 -9.559,4.43 -9.981,10.75 -0.117,1.73 -0.058,3.47 -0.066,5.19 -0.074,13.27 3.07,16.68 16.422,16.09 5.363,-0.23 6.918,1.8 7.949,6.53 1.594,7.36 3.875,14.59 6.277,21.73 0.535,1.61 2.778,3.76 4.258,3.77 23.75,0.24 47.5,0.18 71.745,0.18 l 0,-96.76" /><path
             id="path54"
             style="fill:#da0f64;fill-opacity:1;fill-rule:nonzero;stroke:none"
             d="m 1202.62,1110.07 c 18.73,-5.23 28.26,-14.87 27.86,-27.99 -0.4,-13.05 -10.34,-22.66 -28.27,-26.78 0,-14.05 0,-28.29 0,-42.51 0,-13.2 0.09,-26.411 -0.04,-39.622 -0.08,-8.508 -2.97,-12.238 -9.09,-12.406 -5.56,-0.133 -13.12,7.527 -13.14,13.578 -0.07,32.25 -0.09,64.52 -0.09,96.78 0,40.27 0.05,80.55 0.08,120.82 0,5.3 5.8,13.21 10.68,14.61 5.65,1.63 11.15,-2.46 11.44,-8.98 0.32,-7.35 0.19,-14.73 0.2,-22.08 0.03,-20.58 0.03,-41.13 0.07,-61.7 0,-1.28 0.2,-2.55 0.3,-3.72" /><path
             id="path56"
             style="fill:#da0f64;fill-opacity:1;fill-rule:nonzero;stroke:none"
             d="m 961.121,1025.83 c 12.149,0 23.57,0.13 34.984,-0.2 1.145,-0.03 2.786,-2.68 3.215,-4.37 2.7,-10.67 4.4,-21.651 7.89,-32.041 2.71,-8.051 8.02,-15.188 11.29,-23.098 3.57,-8.68 6.77,-17.609 8.88,-26.723 1.36,-5.898 -3.8,-11.726 -10.9,-12.039 -14.68,-0.629 -29.429,-0.597 -44.109,0.082 -6.887,0.329 -11.211,7.418 -11.226,15.989 -0.075,22.09 -0.024,44.179 -0.024,66.27 0,5.13 0,10.26 0,16.13" /><path
             id="path58"
             style="fill:#da0f64;fill-opacity:1;fill-rule:nonzero;stroke:none"
             d="m 2042.78,879.898 0,178.142 c 0,7.95 -6.5,14.45 -14.46,14.45 l -100.81,0 c -7.95,0 -14.46,-6.5 -14.46,-14.45 l 0,-178.142 c 0,-7.957 6.51,-14.476 14.46,-14.476 l 62.81,0 0,38.156 c 0,3.34 2.74,6.07 6.08,6.07 l 18.82,0 c 3.34,0 6.08,-2.73 6.08,-6.07 l 0,-38.156 7.02,0 c 7.96,0 14.46,6.519 14.46,14.476 m -74.84,154.762 c 0,-3.21 -2.6,-5.85 -5.84,-5.85 l -19.26,0 c -3.2,0 -5.85,2.64 -5.85,5.85 l 0,7.43 c 0,3.22 2.65,5.84 5.85,5.84 l 19.26,0 c 3.24,0 5.84,-2.62 5.84,-5.84 l 0,-7.43 z m 0,-34.23 c 0,-3.219 -2.6,-5.871 -5.84,-5.871 l -19.26,0 c -3.2,0 -5.85,2.652 -5.85,5.871 l 0,7.43 c 0,3.21 2.65,5.85 5.85,5.85 l 19.26,0 c 3.24,0 5.84,-2.64 5.84,-5.85 l 0,-7.43 z m 0,-34.262 c 0,-3.188 -2.6,-5.828 -5.84,-5.828 l -19.26,0 c -3.2,0 -5.85,2.64 -5.85,5.828 l 0,7.441 c 0,3.243 2.65,5.871 5.85,5.871 l 19.26,0 c 3.24,0 5.84,-2.628 5.84,-5.871 l 0,-7.441 z m 0,-34.207 c 0,-3.231 -2.6,-5.859 -5.84,-5.859 l -19.26,0 c -3.2,0 -5.85,2.628 -5.85,5.859 l 0,7.43 c 0,3.218 2.65,5.847 5.85,5.847 l 19.26,0 c 3.24,0 5.84,-2.629 5.84,-5.847 l 0,-7.43 z m 0,-34.223 c 0,-3.238 -2.6,-5.879 -5.84,-5.879 l -19.26,0 c -3.2,0 -5.85,2.641 -5.85,5.879 l 0,7.403 c 0,3.238 2.65,5.847 5.85,5.847 l 19.26,0 c 3.24,0 5.84,-2.609 5.84,-5.847 l 0,-7.403 z m 50.87,136.922 c 0,-3.21 -2.64,-5.85 -5.81,-5.85 l -19.3,0 c -3.19,0 -5.82,2.64 -5.82,5.85 l 0,7.43 c 0,3.22 2.63,5.84 5.82,5.84 l 19.3,0 c 3.17,0 5.81,-2.62 5.81,-5.84 l 0,-7.43 z m 0,-34.23 c 0,-3.219 -2.64,-5.871 -5.81,-5.871 l -19.3,0 c -3.19,0 -5.82,2.652 -5.82,5.871 l 0,7.43 c 0,3.21 2.63,5.85 5.82,5.85 l 19.3,0 c 3.17,0 5.81,-2.64 5.81,-5.85 l 0,-7.43 z m 0,-34.262 c 0,-3.188 -2.64,-5.828 -5.81,-5.828 l -19.3,0 c -3.19,0 -5.82,2.64 -5.82,5.828 l 0,7.441 c 0,3.243 2.63,5.871 5.82,5.871 l 19.3,0 c 3.17,0 5.81,-2.628 5.81,-5.871 l 0,-7.441 z m 0,-34.207 c 0,-3.231 -2.64,-5.859 -5.81,-5.859 l -19.3,0 c -3.19,0 -5.82,2.628 -5.82,5.859 l 0,7.43 c 0,3.218 2.63,5.847 5.82,5.847 l 19.3,0 c 3.17,0 5.81,-2.629 5.81,-5.847 l 0,-7.43 z m -128.94,-50.34 0,247.309 c 0,11.55 -9.45,21 -21,21 l -0.22,0 c -0.12,10.05 -7.52,18.41 -17.16,20.07 l 0,3.55 c 0,11.55 -9.45,20.99 -21,20.99 l -6.4,0 -4.33,65.37 c 0,4.8 -1.63,8.69 -3.69,8.69 -2.01,0 -3.69,-3.89 -3.69,-8.69 l -4.33,-65.37 -6.38,0 c -11.55,0 -21,-9.44 -21,-20.99 l 0,-3.55 c -9.63,-1.67 -17.02,-10.02 -17.14,-20.07 l -0.22,0 c -11.55,0 -21,-9.45 -21,-21 l 0,-247.309 c 0,-7.941 6.51,-14.453 14.46,-14.453 l 26.44,0 c 0.32,-0.02 0.64,-0.109 0.97,-0.109 l 13.56,0 0,49.929 c 0,1.293 1.05,2.34 2.34,2.34 l 32.26,0 c 1.3,0 2.34,-1.047 2.34,-2.34 l 0,-49.929 13.32,0 c 0.33,0 0.64,0.089 0.97,0.109 l 26.43,0 c 7.96,0 14.47,6.512 14.47,14.453 m -32.45,238.229 c 0,-4.53 -3.99,-8.2 -8.9,-8.2 l -65.46,0 c -4.91,0 -8.88,3.67 -8.88,8.2 0,4.49 3.97,8.2 8.88,8.2 l 65.46,0 c 4.91,0 8.9,-3.71 8.9,-8.2 m 0,-40.01 c 0,-4.52 -3.99,-8.21 -8.9,-8.21 l -65.46,0 c -4.91,0 -8.88,3.69 -8.88,8.21 0,4.51 3.97,8.2 8.88,8.2 l 65.46,0 c 4.91,0 8.9,-3.69 8.9,-8.2 m 0,-40 c 0,-4.53 -3.99,-8.22 -8.9,-8.22 l -65.46,0 c -4.91,0 -8.88,3.69 -8.88,8.22 0,4.51 3.97,8.19 8.88,8.19 l 65.46,0 c 4.91,0 8.9,-3.68 8.9,-8.19 m 0,-40.031 c 0,-4.5 -3.99,-8.18 -8.9,-8.18 l -65.46,0 c -4.91,0 -8.88,3.68 -8.88,8.18 0,4.531 3.97,8.211 8.88,8.211 l 65.46,0 c 4.91,0 8.9,-3.68 8.9,-8.211 m 0,-39.981 c 0,-4.527 -3.99,-8.207 -8.9,-8.207 l -65.46,0 c -4.91,0 -8.88,3.68 -8.88,8.207 0,4.5 3.97,8.192 8.88,8.192 l 65.46,0 c 4.91,0 8.9,-3.692 8.9,-8.192" /><path
             id="path60"
             style="fill:none;stroke:#da0f64;stroke-width:15;stroke-linecap:butt;stroke-linejoin:miter;stroke-miterlimit:4;stroke-dasharray:none;stroke-opacity:1"
             d="m 1761.49,1349.29 c -3.75,-0.01 -91.72,-1.34 -91.72,-91.71 l 0,-381.35 c 0.01,-3.73 1.33,-91.71 91.71,-91.71 l 262.12,0 c 3.74,0.011 91.72,1.332 91.72,91.71 l 0,381.35 c -0.02,3.73 -1.34,91.71 -91.72,91.71 l -262.12,0 0.01,0 z" /><path
             id="path62"
             style="fill:#da0f64;fill-opacity:1;fill-rule:nonzero;stroke:none"
             d="m 2888.13,1080.73 -39.9,70.02 -67.17,-38.77 42.07,-70.93 c 0,0 25.1,-30.85 52.62,-11.38 28.35,20.03 12.38,51.06 12.38,51.06 m -83.99,56.48 48.86,74.24 -35.64,-20.45 -20.94,36.65 c 0,0 -4.52,28.47 -121.54,13.02 0,0 27.81,-6.58 33.59,-16.11 5.84,-9.47 41.54,-72.17 41.54,-72.17 l -34.45,-19.72 88.58,4.54 z m -122.93,91.04 c -31.55,14.55 -50.45,-14.61 -50.45,-14.61 l -40.83,-69.51 66.97,-38.88 40.6,71.85 c 0,0 14.29,36.99 -16.29,51.15 m -146.1,-112.54 35.46,-20.59 -21.06,-36.54 c 0,0 -27.51,-26.73 49.6,-111.682 0,0 -8.19,24.911 -3.02,37.192 5.21,12.199 41.75,72.05 41.75,72.05 l 34.4,-19.96 -48.3,74.47 -88.83,5.06 z m 77.15,-156.429 c 3.16,-34.461 38,-36.16 38,-36.16 l 80.54,-0.492 0.11,77.441 -82.5,-0.859 c 0,0 -39.24,-6.25 -36.15,-39.93 m 165.03,87.749 -40.03,-79.03 40.03,-79.449 0,41.051 42.25,0 c 0,0 35.27,-9.954 71.77,98.858 0,0 -18.4,-21.15 -30.68,-21.15 l -83.34,0 0,39.72" /><path
             id="path64"
             style="fill:none;stroke:#da0f64;stroke-width:15;stroke-linecap:butt;stroke-linejoin:miter;stroke-miterlimit:4;stroke-dasharray:none;stroke-opacity:1"
             d="m 2582.81,1349.29 c -3.75,-0.01 -91.72,-1.34 -91.72,-91.71 l 0,-381.35 c 0.01,-3.73 1.33,-91.71 91.71,-91.71 l 262.11,0 c 3.75,0.011 91.72,1.332 91.72,91.71 l 0,381.35 c -0.02,3.73 -1.33,91.71 -91.72,91.71 l -262.11,0 0.01,0 z" /><path
             id="path66"
             style="fill:#da0f64;fill-opacity:1;fill-rule:nonzero;stroke:none"
             d="m 3643.66,1205.05 c -6.56,-17.96 -4.34,-27.16 1.97,-30.53 -0.12,-2.2 -0.19,-4.52 -0.17,-6.79 -11.86,-9.39 -22.99,-19.7 -34.18,-29.69 -4.73,-4.24 -9.73,-8.88 -14.96,-13.67 -3.83,2.52 -10.67,6.45 -16.8,9.25 -0.14,7.17 -8.1,13.77 -28.81,17.44 -16.23,2.81 -48.1,-0.87 -48.32,-21.2 -0.5,-41.78 62.21,-23.84 74.94,-3.37 5.77,-0.66 11.37,-2.38 16.45,-4.51 -20.04,-18.92 -42.62,-42.26 -61.19,-67.86 -4.34,2.88 -12.37,7.58 -19.53,10.87 -0.18,8.18 -9.3,15.74 -33.03,19.96 -18.54,3.24 -55,-1.01 -55.29,-24.24 -0.53,-47.85 71.27,-27.32 85.76,-3.91 7.03,-0.75 13.84,-2.94 19.96,-5.69 -17.64,-24.87 -31.19,-51.669 -34.73,-78.52 -4.71,3.211 -14.57,9.058 -23.36,13.101 -0.22,9.43 -10.74,18.209 -38.12,22.979 -21.39,3.79 -63.5,-1.12 -63.81,-27.932 -0.65,-55.218 82.23,-31.5 99,-4.476 9.02,-1.012 17.83,-3.953 25.49,-7.594 l 0.41,0.293 c -1.77,-18.531 4.26,-108 14.37,-125.68 l 1.33,-0.5 c 4.63,0.938 7.23,0.387 11.14,3.129 -7.08,19.141 -8.75,115.891 -6.3,136.051 l 0.24,1.648 c 5.06,-2.25 10.04,-5.089 14.49,-8.691 -7.88,-30.629 28.95,-102.566 66.57,-62.297 18.28,19.52 -5.35,50.981 -21.68,62.41 -20.86,14.688 -33.65,15.309 -40.27,8.637 -5.99,2.113 -12.94,3.832 -18.36,4.98 5.25,30.862 20,52.832 38.96,74.992 l 0.02,0 c 6.4,-2.07 13.06,-5.35 18.69,-9.87 -6.8,-26.55 25.1,-88.918 57.69,-54.032 15.83,16.922 -4.66,44.212 -18.78,54.112 -18.11,12.74 -29.15,13.28 -34.9,7.51 -7,2.44 -15.53,4.35 -20.24,5.13 6.15,7.06 12.71,14.21 19.47,21.65 8.73,9.59 32.37,27.96 52.4,46.31 2.97,-1.5 5.86,-3.27 8.5,-5.36 -5.98,-23.2 21.91,-77.68 50.35,-47.21 13.89,14.83 -4.06,38.62 -16.35,47.28 -15.82,11.14 -25.47,11.61 -30.48,6.59 -2.62,0.86 -5.42,1.64 -8.07,2.36 14.68,13.82 26.51,27.25 27.7,36.62 24.72,7.91 57.24,42.32 23.76,58.8 -18.33,8.98 -36.78,-14.42 -41.93,-28.48" /><path
             id="path68"
             style="fill:none;stroke:#da0f64;stroke-width:15;stroke-linecap:butt;stroke-linejoin:miter;stroke-miterlimit:4;stroke-dasharray:none;stroke-opacity:1"
             d="m 3404.11,1349.29 c -3.75,-0.01 -91.72,-1.34 -91.72,-91.71 l 0,-381.35 c 0.02,-3.73 1.33,-91.71 91.72,-91.71 l 262.11,0 c 3.75,0.011 91.73,1.332 91.73,91.71 l 0,381.35 c -0.02,3.73 -1.34,91.71 -91.73,91.71 l -262.11,0 0,0 z" /><path
             id="path70"
             style="fill:none;stroke:#da0f64;stroke-width:13.5;stroke-linecap:butt;stroke-linejoin:miter;stroke-miterlimit:4;stroke-dasharray:none;stroke-opacity:1"
             d="m 4238.54,515.039 c -3.37,-0.008 -82.55,-1.187 -82.55,-82.539 l 0,-343.1992 c 0.02,-3.3516 1.21,-82.53127 82.54,-82.53127 l 235.91,0 c 3.36,0 82.54,1.19141 82.54,82.53127 l 0,343.1992 c -0.01,3.359 -1.2,82.539 -82.54,82.539 l -235.91,0 0.01,0 z" /><path
             id="path72"
             style="fill:#da0f64;fill-opacity:1;fill-rule:nonzero;stroke:none"
             d="m 4443.67,243.371 0,43.879 c 0,6.109 -1.68,15.82 -3.72,21.609 l -6.99,19.571 c -2.05,5.769 -3.73,5.48 -3.73,-0.641 l 0,-84.418 c 0,-6.07 -1.21,-24.383 -2.68,-29.101 -1.48,-4.731 -8.66,-19.801 -11.74,-23.508 -3.08,-3.75 -15.27,-14.844 -19.53,-17.172 -4.27,-2.36 -20.09,-8.141 -25.15,-8.692 -5.06,-0.5 -9.71,-0.929 -10.31,-0.929 l -6.66,0 c -0.63,0 -14.42,1.23 -19.14,2.699 -4.69,1.48 -19.77,8.652 -23.5,11.742 -3.73,3.07 -14.87,15.258 -17.2,19.52 -2.31,4.281 -8.1,20.101 -8.62,25.148 -0.53,5.063 -0.96,14.223 -0.96,20.293 l 0,84.418 c 0,6.121 -1.68,6.41 -3.73,0.641 l -6.99,-19.571 c -2.05,-5.789 -3.71,-15.5 -3.71,-21.609 l 0,-43.879 c 0,-6.07 1.45,-27.172 3.26,-32.91 1.78,-5.691 10.47,-24 14.2,-28.473 3.73,-4.519 18.48,-18.019 23.65,-20.84 5.2,-2.789 14.1,-6.578 19.82,-8.359 5.71,-1.809 10.75,-2.109 10.75,-2.109 1.17,-0.121 2.25,-0.231 3.34,-0.328 l 0,-66.9028 -24.92,0 c -3.09,0 -5.59,-2.4883 -5.59,-5.5781 l 0,-13.1211 c 0,-3.082 2.5,-5.5703 5.59,-5.5703 l 74.15,0 c 3.09,0 5.6,2.4883 5.6,5.5703 l 0,13.1211 c 0,3.0898 -2.51,5.5781 -5.6,5.5781 l -24.93,0 0,66.9608 c 5.11,0.59 11.09,1.43 14.1,2.379 5.74,1.781 24,10.473 28.51,14.223 4.5,3.707 17.99,18.488 20.8,23.668 2.81,5.14 6.58,14.09 8.37,19.781 1.79,5.738 2.12,10.758 2.12,10.758 0.62,6.082 1.14,16.082 1.14,22.152 m -24.61,-0.723 0,5.114 -41.37,0 c -5.29,0 -9.54,4.258 -9.54,9.488 0,5.27 4.25,9.539 9.54,9.539 l 41.37,0 0,14.25 -41.37,0 c -5.29,0 -9.54,4.262 -9.54,9.539 0,5.274 4.25,9.543 9.54,9.543 l 41.37,0 0,14.25 -41.37,0 c -5.29,0 -9.54,4.258 -9.54,9.539 0,5.231 4.25,9.539 9.54,9.539 l 41.37,0 0,14.211 -41.37,0 c -5.29,0 -9.54,4.301 -9.54,9.57 0,5.239 4.25,9.508 9.54,9.508 l 41.37,0 0,14.25 -41.37,0 c -5.29,0 -9.54,4.262 -9.54,9.543 0,5.258 4.25,9.539 9.54,9.539 l 41.37,0 c 0,33.821 -26.8,61.328 -60.33,62.52 l 0,-282.461 c 33.53,1.191 60.33,28.699 60.33,62.519 m -63.65,-62.589 0,282.57 c -34.07,-0.598 -61.51,-28.348 -61.51,-62.559 l 41.39,0 c 5.27,0 9.52,-4.281 9.52,-9.539 0,-5.281 -4.25,-9.543 -9.52,-9.543 l -41.39,0 0,-14.25 41.39,0 c 5.27,0 9.52,-4.269 9.52,-9.508 0,-5.269 -4.25,-9.57 -9.52,-9.57 l -41.39,0 0,-14.211 41.39,0 c 5.27,0 9.52,-4.308 9.52,-9.539 0,-5.281 -4.25,-9.539 -9.52,-9.539 l -41.39,0 0,-14.25 41.39,0 c 5.27,0 9.52,-4.269 9.52,-9.543 0,-5.277 -4.25,-9.539 -9.52,-9.539 l -41.39,0 0,-14.25 41.39,0 c 5.27,0 9.52,-4.269 9.52,-9.539 0,-5.23 -4.25,-9.488 -9.52,-9.488 l -41.39,0 0,-5.114 c 0,-34.199 27.44,-62.007 61.51,-62.589" /><path
             id="path74"
             style="fill:#da0f64;fill-opacity:1;fill-rule:nonzero;stroke:none"
             d="m 3353.25,241.488 c 0,2.703 0.09,5.461 0.22,8.231 l 0.13,1.832 0.12,1.84 c 0.65,7.937 1.88,16.097 3.87,24.027 l 0.49,1.73 0.46,1.743 c 6.7,24.121 19.99,45.558 41.42,52.57 0,0 26.05,8.148 47.08,14.73 l 0.13,0 c 2.44,0.008 4.23,-0.543 4.99,-0.961 l 0.08,-0.019 0,-0.66 c 0.02,-11.301 -1.04,-23.09 -1.04,-34.672 -0.02,-21.539 3.69,-42.777 25.01,-57.969 10.92,-6.359 22.56,-9.57 33.88,-9.57 17.78,-0.02 34.69,7.961 46.15,23.73 5.8,7.45 8.69,15.5 10.03,23.711 l 0.26,2.129 0.3,2.09 c 0.33,3.27 0.48,6.559 0.48,9.82 l 0,0.289 -0.03,2.121 -0.06,2.36 c -0.26,8.34 -0.98,16.601 -0.98,24.531 l 0,2.09 c 0.77,1.148 2.83,2.617 5.16,3.937 l 0.66,0.391 1,0.41 1.66,0.672 2.95,0.988 c 4.39,-1.23 8.82,-2.468 12.96,-3.64 2.28,-0.641 4.48,-1.27 6.56,-1.848 l 1.73,-0.492 1.75,-0.481 c 6.9,-1.949 11.89,-3.359 12.89,-3.628 19.69,-10.571 46.48,-32.559 61.91,-56.481 -3.59,-2.898 -5.88,-7.109 -5.9,-11.937 0.02,-8.883 7.74,-15.864 17.02,-15.883 l 0.56,0.07 c 0.48,-2.629 0.72,-5.219 0.72,-7.801 0,-33.308 -23.52,-60.57 -53.49,-64.07 -2.94,17.973 -19.14,31.66 -38.62,31.691 -19.62,-0.031 -35.89,-13.89 -38.69,-32.097 l -81.59,0 c -2.74,18.187 -18.71,32.066 -37.95,32.097 -18.68,-0.031 -34.26,-13.078 -37.7,-30.41 -26.6,6.539 -46.58,32.063 -46.58,62.789 m 163.84,64.922 c -1.27,1.059 -1.94,2.68 -1.94,4.711 0,2.231 0.91,4.891 2.79,7.129 l 23.5,28 c 2.25,2.738 5.34,4.148 7.85,4.148 l 0.04,0 c 1.41,0 2.63,-0.418 3.65,-1.25 1.25,-1.046 1.91,-2.679 1.94,-4.687 0,-2.25 -0.91,-4.883 -2.82,-7.141 l -7.31,-8.718 -1.3,-1.582 -1.55,-1.829 -3.24,-3.839 -1.46,-1.782 -1.31,-1.531 -7.31,-8.738 c -2.29,-2.742 -5.38,-4.16 -7.91,-4.153 -1.4,0 -2.63,0.43 -3.62,1.243 l 0,0.019 z m 28.54,17.578 18.01,-15.097 0.05,-2.782 c 0,-2.441 -0.09,-4.859 -0.26,-7.269 l -22.81,19.148 5.01,6 z m 24.84,45.633 -0.17,2.129 c 0.02,6.199 4.27,11.512 10.13,12.418 l 1.79,0.133 0.02,0 c 5.82,0 11.12,-4.52 12.11,-10.922 l 4.25,-26.957 0.15,-2.102 -0.33,-2.82 c -2.15,0.621 -4.45,1.25 -6.85,1.93 -4.28,1.191 -8.83,2.48 -13.4,3.781 l -0.46,0.141 -0.49,-0.133 -3.08,-0.989 -3.67,23.391 z m 102.7,-104.519 c 0,3.468 1.61,6.636 4.2,8.886 l 1.44,1.102 1.58,0.871 c 1.87,0.879 3.94,1.457 6.2,1.457 7.54,-0.02 13.43,-5.637 13.43,-12.316 0,-5.614 -4.23,-10.461 -10.05,-11.84 l -1.76,-0.293 -1.62,-0.141 -0.15,0 c -7.45,0.09 -13.27,5.652 -13.27,12.274 m -41.95,-91.481 0.11,-2.121 c -0.02,-18.699 -15.84,-33.988 -35.57,-33.988 -19.7,0 -35.54,15.289 -35.55,33.988 l 0.07,1.93 0.13,1.781 0.3,1.801 c 2.76,16.117 17.33,28.5 35.05,28.5 17.67,0 32.17,-12.293 35.03,-28.332 l 0.29,-1.789 0.14,-1.77 z m -158.98,-0.191 0.09,-1.93 c -0.04,-18.73 -15.56,-33.988 -34.8,-34.02 -19.26,0.032 -34.79,15.29 -34.81,34.02 l 0.13,2.891 0.23,1.8 0.26,1.778 c 3.12,15.679 17.19,27.543 34.19,27.543 17.32,0 31.57,-12.364 34.28,-28.5 l 0.29,-1.801 0.14,-1.781" /><path
             id="path76"
             style="fill:none;stroke:#da0f64;stroke-width:13.5;stroke-linecap:butt;stroke-linejoin:miter;stroke-miterlimit:4;stroke-dasharray:none;stroke-opacity:1"
             d="m 3408.68,515.039 c -3.36,-0.008 -82.54,-1.199 -82.54,-82.551 l 0,-343.1872 c 0,-3.3594 1.19,-82.53908 82.54,-82.53908 l 235.9,0 c 3.36,0 82.55,1.19922 82.55,82.53908 l 0,343.1872 c -0.01,3.371 -1.2,82.551 -82.55,82.551 l -235.9,0 0,0 z" /><path
             id="path78"
             style="fill:#da0f64;fill-opacity:1;fill-rule:nonzero;stroke:none"
             d="m 2859.09,312.141 -86.39,86.398 c -3.1,3.102 -8.18,3.102 -11.29,0 l -21.5,-21.519 c -3.11,-3.098 -3.11,-8.168 0,-11.27 l 86.39,-86.398 c 3.09,-3.102 8.18,-3.102 11.28,0 l 21.51,21.507 c 3.1,3.102 3.1,8.18 0,11.282 m -114.02,34.64 c -6.29,6.258 -15.04,7.481 -23.61,3.571 -8.56,-3.93 -46.94,-21.524 -46.94,-21.524 -5.23,-1.84 -9.35,-5.976 -11.17,-11.219 l -10.34,-29.859 c -2.39,-6.809 -0.46,-14.109 4.33,-18.898 1.92,-1.903 4.23,-3.411 6.94,-4.34 9.54,-3.321 19.95,1.718 23.27,11.258 l 7.46,21.539 30.43,10.8 55.65,-55.668 14.94,14.93 c 7.82,7.82 7.82,20.609 0,28.43 l -50.96,50.98 z m -81.74,0.188 c 3.11,3.101 3.11,8.172 0,11.269 l -23.22,23.25 c -3.11,3.102 -8.19,3.102 -11.28,0 l -94.33,-94.34 c -3.11,-3.097 -3.11,-8.168 0,-11.289 l 23.22,-23.23 c 3.09,-3.098 8.18,-3.098 11.27,0 l 94.34,94.34 z m -75.84,-93.34 c -2.58,-2.59 -2.58,-6.82 0,-9.399 l 6.17,-6.16 11.64,11.649 c 7.76,7.769 20.37,7.769 28.13,0.011 3.86,-3.859 5.8,-8.929 5.81,-14 5.08,-0.019 10.14,-1.949 14.01,-5.82 3.85,-3.851 5.78,-8.91 5.8,-13.98 5.06,-0.02 10.14,-1.95 13.99,-5.801 3.85,-3.867 5.8,-8.938 5.82,-14 5.07,-0.027 10.13,-1.961 14,-5.828 7.74,-7.742 7.74,-20.352 -0.02,-28.121 l -11.64,-11.641 25.73,-25.738 c 5.17,-5.172 13.55,-5.172 18.7,0.008 5.16,5.16 5.2,13.543 0.01,18.722 l -20.53,20.559 c -1.8,1.738 -1.8,4.601 -0.02,6.371 1.77,1.758 4.63,1.75 6.38,-0.02 l 20.57,-20.543 c 5.15,-5.168 13.53,-5.168 18.71,0.02 5.16,5.152 5.16,13.531 0,18.684 l -20.56,20.558 c -1.76,1.781 -1.77,4.629 0,6.399 1.77,1.781 4.61,1.761 6.38,0 l 20.6,-20.59 c 5.16,-5.141 13.51,-5.117 18.66,0.043 5.17,5.148 5.18,13.508 0.02,18.687 l -20.57,20.563 c -1.76,1.769 -1.77,4.617 0,6.398 1.76,1.75 4.63,1.758 6.39,-0.019 l 20.58,-20.571 c 5.18,-5.14 13.52,-5.121 18.69,0.051 5.16,5.16 5.16,13.5 -0.01,18.68 l -78.6,78.398 -20.8,-7.359 -5.9,-17.02 c -2.49,-7.129 -7.59,-12.89 -14.39,-16.172 -6.78,-3.277 -14.44,-3.718 -21.58,-1.238 -4.05,1.41 -7.66,3.66 -10.71,6.699 -7.62,7.629 -10.25,19.11 -6.71,29.27 l 9.02,26.012 -63.77,-63.762 z m 8.13,-26.93 c -4.07,-4.09 -4.07,-10.687 0.01,-14.777 4.07,-4.063 10.67,-4.07 14.75,0 l 16.36,16.348 c 4.07,4.07 4.07,10.71 0,14.761 -4.07,4.098 -10.7,4.09 -14.78,0 l -16.34,-16.332 z m 19.82,-19.82 c -4.08,-4.059 -4.1,-10.68 0,-14.77 4.08,-4.07 10.68,-4.058 14.76,0.012 l 16.33,16.348 c 4.1,4.09 4.1,10.691 0.02,14.75 -4.08,4.101 -10.68,4.101 -14.77,0.019 l -16.34,-16.359 z m 19.79,-19.809 c -4.07,-4.058 -4.07,-10.691 0,-14.761 4.09,-4.079 10.71,-4.079 14.78,0 l 16.36,16.339 c 4.05,4.071 4.05,10.692 -0.02,14.782 -4.07,4.058 -10.7,4.058 -14.76,0.011 l -16.36,-16.371 z m 19.82,-19.789 c -4.07,-4.07 -4.07,-10.703 0,-14.781 4.08,-4.082 10.68,-4.07 14.75,0.02 l 16.34,16.332 c 4.09,4.097 4.09,10.679 0.02,14.769 -4.08,4.078 -10.7,4.078 -14.77,0.008 l -16.34,-16.348" /><path
             id="path80"
             style="fill:none;stroke:#da0f64;stroke-width:13.5;stroke-linecap:butt;stroke-linejoin:miter;stroke-miterlimit:4;stroke-dasharray:none;stroke-opacity:1"
             d="m 2578.84,515.039 c -3.36,-0.008 -82.55,-1.199 -82.55,-82.551 l 0,-343.1872 c 0.01,-3.3594 1.21,-82.53908 82.55,-82.53908 l 235.91,0 c 3.36,0 82.54,1.19922 82.54,82.53908 l 0,343.1872 c -0.01,3.371 -1.21,82.551 -82.54,82.551 l -235.91,0 0,0 z" /><path
             id="path82"
             style="fill:#da0f64;fill-opacity:1;fill-rule:nonzero;stroke:none"
             d="m 2022.15,239.781 c 0,8.278 -6.72,14.989 -15,14.989 l -10.51,0 c -5.61,33.96 -27.23,63.109 -57.61,81.07 -11.43,-15.481 -29.74,-25.559 -50.4,-25.559 -27.63,0 -51.09,17.969 -59.43,42.797 l -31.51,23.902 c -3.9,2.938 -7.48,1.27 -8.01,-3.742 l -4.85,-46.34 c -16.51,-12.718 -29.38,-29.128 -37.24,-47.82 l -20.86,0 c -8.25,0 -15,-6.758 -15,-15.008 l 0,-45.601 c 0,-8.258 6.75,-15.008 15,-15.008 l 17.74,0 c 8.73,-26.492 27.43,-49.07 52.19,-64.102 l 0,-29.031 c 0,-3.707 3.04,-6.726 6.73,-6.726 l 33,0 c 3.7,0 6.73,3.019 6.73,6.726 l 0,11.531 c 8.24,-1.488 16.77,-2.3 25.5,-2.3 8.73,0 17.25,0.812 25.5,2.3 l 0,-11.531 c 0,-3.707 3.03,-6.726 6.73,-6.726 l 32.99,0 c 3.7,0 6.73,3.019 6.73,6.726 l 0,29.031 c 31.18,18.93 52.8,49.789 56.93,85.403 l 9.65,0 c 8.28,0 15,6.726 15,15.019 m -203.57,47.688 c 0,-10.77 -8.72,-19.5 -19.49,-19.5 -9.16,0 -16.78,6.351 -18.87,14.871 2.48,-3.5 6.54,-5.789 11.15,-5.789 7.58,0 13.73,6.16 13.73,13.719 0,7.589 -6.15,13.742 -13.73,13.742 -0.65,0 -1.29,-0.114 -1.93,-0.203 2.86,1.652 6.12,2.671 9.65,2.671 10.77,0 19.49,-8.73 19.49,-19.511 m 115.26,85.511 c 0,24.93 -20.29,45.231 -45.21,45.231 -24.94,0 -45.24,-20.301 -45.24,-45.231 0,-24.941 20.3,-45.21 45.24,-45.21 24.92,0 45.21,20.269 45.21,45.21 m -20.81,21.329 -4.13,-8.758 c -3.02,4.551 -8.91,8.34 -17.33,8.34 -9.25,0 -14.72,-4.223 -16.82,-10.11 l 33.31,0 -4.04,-8.402 -30.79,0 c -0.08,-0.848 -0.17,-2.027 -0.17,-2.867 0,-0.844 0.09,-1.762 0.17,-2.602 l 28.19,0 -3.96,-8.422 -21.87,0 c 1.68,-4.629 7.57,-9.429 16.4,-9.429 8,0 13.89,3.543 16.83,6.91 l 0,-10.098 c -2.52,-2.101 -9.25,-5.203 -18.09,-5.203 -14.72,0 -23.13,8.141 -26.49,17.82 l -10.52,0 4.21,8.422 4.29,0 c -0.08,1.168 -0.08,1.93 -0.08,2.68 0,0.851 0,1.609 0.08,2.789 l -8.5,0 4.21,8.402 6.31,0 c 2.94,10.528 13.03,18.508 27.75,18.508 8.42,0 15.99,-2.937 21.04,-7.98" /><path
             id="path84"
             style="fill:none;stroke:#da0f64;stroke-width:13.5;stroke-linecap:butt;stroke-linejoin:miter;stroke-miterlimit:4;stroke-dasharray:none;stroke-opacity:1"
             d="m 1748.99,515.039 c -3.36,-0.008 -82.54,-1.199 -82.54,-82.551 l 0,-343.1872 c 0.01,-3.3594 1.2,-82.53908 82.53,-82.53908 l 235.92,0 c 3.36,0 82.54,1.19922 82.54,82.53908 l 0,343.1872 c -0.01,3.371 -1.2,82.551 -82.54,82.551 l -235.92,0 0.01,0 z" /><path
             id="path86"
             style="fill:#da0f64;fill-opacity:1;fill-rule:nonzero;stroke:none"
             d="m 1187.07,148.41 -110.34,265.719 c -0.88,2.121 -7.58,1.332 -14.99,-1.731 L 999.211,386.41 c -7.399,-3.051 -12.684,-7.25 -11.801,-9.371 l 110.32,-265.758 c 0.89,-2.121 7.62,-1.32 15.01,1.739 l 62.51,25.98 c 7.41,3.059 12.71,7.25 11.82,9.41 m -101.26,219.66 -0.31,-1.949 -66.89,-27.793 -1.62,1.172 -3.06,7.371 0.33,1.969 66.88,27.789 1.62,-1.168 3.05,-7.391 z m 13.46,-32.429 -0.3,-1.961 -66.88,-27.789 -1.64,1.168 -3.05,7.371 0.3,1.961 66.91,27.8 1.61,-1.171 3.05,-7.379 z m 67.35,-162.172 -0.31,-1.989 -66.88,-27.761 -1.62,1.172 -3.07,7.379 0.32,1.96 66.88,27.75 1.62,-1.171 3.06,-7.34 z m -182.87,-62.828 0,287.73 c 0,2.301 -6.5,4.16 -14.512,4.16 l -67.711,0 c -8.007,0 -14.507,-1.859 -14.507,-4.16 l 0,-287.73 c 0,-2.313 6.5,-4.161 14.507,-4.161 l 67.711,0 c 8.012,0 14.512,1.848 14.512,4.161 m -9.27,241.75 -1.039,-1.743 -72.441,0 -1.051,1.743 0,7.937 1.051,1.703 72.441,0 1.039,-1.703 0,-7.937 z m 0,-35.172 -1.039,-1.688 -72.441,0 -1.051,1.688 0,7.992 1.051,1.738 72.441,0 1.039,-1.738 0,-7.992 z m 0,-175.578 -1.039,-1.7 -72.441,0 -1.051,1.7 0,7.98 1.051,1.699 72.441,0 1.039,-1.699 0,-7.98" /><path
             id="path88"
             style="fill:none;stroke:#da0f64;stroke-width:13.5;stroke-linecap:butt;stroke-linejoin:miter;stroke-miterlimit:4;stroke-dasharray:none;stroke-opacity:1"
             d="m 919.145,515.039 c -3.368,-0.008 -82.547,-1.187 -82.547,-82.539 l 0,-343.1992 c 0.007,-3.3516 1.199,-82.53127 82.539,-82.53127 l 235.903,0 c 3.36,0 82.55,1.19141 82.55,82.53127 l 0,343.1992 c -0.01,3.359 -1.2,82.539 -82.55,82.539 l -235.903,0 0.008,0 z" /><path
             id="path90"
             style="fill:#da0f64;fill-opacity:1;fill-rule:nonzero;stroke:none"
             d="m 311.555,245.828 -14.692,6.031 13.629,8.129 c 11.758,7.082 19.211,18.992 19.211,32.352 -0.039,20.91 -18.59,38.699 -42.551,38.738 -23.976,-0.039 -42.507,-17.828 -42.566,-38.738 0,-13.36 7.465,-25.27 19.219,-32.352 l 13.656,-8.129 -14.727,-6.031 c -2.121,-0.867 -4.187,-1.887 -6.242,-2.976 -2.328,-1.274 -4.597,-2.68 -6.82,-4.211 -2.25,-1.563 -4.445,-3.192 -6.535,-5.051 -17.512,-15.32 -29.145,-39.738 -29.114,-67.488 -0.007,-4.973 0.372,-9.793 1.071,-14.524 3.34,-4.066 6.945,-7.808 10.789,-11.289 2.031,-1.82 4.16,-3.519 6.328,-5.16 2.23,-1.668 4.504,-3.27 6.844,-4.758 14.215,-8.891 30.617,-13.973 48.097,-13.973 28.532,0 54.211,13.473 72.043,35.18 0.715,4.731 1.071,9.551 1.071,14.524 0.027,37.179 -20.801,68.367 -48.711,79.726 m -75.653,2.402 c -11.859,20.329 -29.101,36.02 -49.179,44.219 l -14.703,6.063 13.632,8.129 c 16.243,9.769 26.66,26.339 26.66,44.988 -0.07,29.191 -25.867,53.699 -58.82,53.769 -32.98,-0.07 -58.7811,-24.578 -58.8475,-53.769 0,-18.649 10.4295,-35.219 26.6405,-44.988 l 13.664,-8.129 -14.715,-6.063 C 82.2422,276.941 54.1953,234.762 54.2227,184.66 c 0,-6.941 0.539,-13.699 1.5664,-20.269 24.0547,-29.59 58.9019,-47.993 97.7029,-47.993 21.039,0 40.895,5.442 58.512,15.141 -3.789,3.66 -7.371,7.582 -10.66,11.723 l -1.262,1.636 -0.352,1.961 c -1.058,6.243 -1.617,12.629 -1.617,19.243 0.012,33.726 14.719,63.828 37.789,82.128" /><path
             id="path92"
             style="fill:none;stroke:#da0f64;stroke-width:13.5;stroke-linecap:butt;stroke-linejoin:miter;stroke-miterlimit:4;stroke-dasharray:none;stroke-opacity:1"
             d="M 89.2969,515.039 C 85.9258,515.031 6.75,513.852 6.75,432.5 l 0,-343.1992 C 6.75781,85.9492 7.94922,6.76953 89.2852,6.76953 l 235.9138,0 c 3.36,0 82.539,1.19141 82.539,82.53127 l 0,343.1992 c -0.008,3.359 -1.199,82.539 -82.539,82.539 l -235.9138,0 0.0117,0 z" /></g></g></g></g></svg>