<?xml version="1.0" encoding="UTF-8" standalone="no"?>
<!-- Created with Inkscape (http://www.inkscape.org/) -->

<svg
   xmlns:dc="http://purl.org/dc/elements/1.1/"
   xmlns:cc="http://creativecommons.org/ns#"
   xmlns:rdf="http://www.w3.org/1999/02/22-rdf-syntax-ns#"
   xmlns:svg="http://www.w3.org/2000/svg"
   xmlns="http://www.w3.org/2000/svg"
   xmlns:sodipodi="http://sodipodi.sourceforge.net/DTD/sodipodi-0.dtd"
   xmlns:inkscape="http://www.inkscape.org/namespaces/inkscape"
   width="17.330702mm"
   height="21.81653mm"
   viewBox="0 0 61.407999 77.302666"
   id="svg4393"
   version="1.1"
   inkscape:version="0.91 r13725"
   sodipodi:docname="rameau.svg">
  <defs
     id="defs4395" />
  <sodipodi:namedview
     id="base"
     pagecolor="#ffffff"
     bordercolor="#666666"
     borderopacity="1.0"
     inkscape:pageopacity="0.0"
     inkscape:pageshadow="2"
     inkscape:zoom="0.35"
     inkscape:cx="694.27543"
     inkscape:cy="-378.49152"
     inkscape:document-units="px"
     inkscape:current-layer="layer1"
     showgrid="false"
     fit-margin-top="0"
     fit-margin-left="0"
     fit-margin-right="0"
     fit-margin-bottom="0"
     inkscape:window-width="1920"
     inkscape:window-height="1056"
     inkscape:window-x="1920"
     inkscape:window-y="24"
     inkscape:window-maximized="1" />
  <metadata
     id="metadata4398">
    <rdf:RDF>
      <cc:Work
         rdf:about="">
        <dc:format>image/svg+xml</dc:format>
        <dc:type
           rdf:resource="http://purl.org/dc/dcmitype/StillImage" />
        <dc:title></dc:title>
      </cc:Work>
    </rdf:RDF>
  </metadata>
  <g
     inkscape:label="Calque 1"
     inkscape:groupmode="layer"
     id="layer1"
     transform="translate(319.27543,-76.568015)">
    <path
       inkscape:connector-curvature="0"
       id="path66"
       style="fill:#da0f64;fill-opacity:1;fill-rule:nonzero;stroke:none"
       d="m -274.1061,96.800014 c -0.87466,2.394667 -0.57866,3.621336 0.26267,4.070666 -0.016,0.29333 -0.0253,0.60267 -0.0227,0.90533 -1.58133,1.252 -3.06533,2.62667 -4.55733,3.95867 -0.63067,0.56533 -1.29733,1.184 -1.99467,1.82267 -0.51066,-0.336 -1.42266,-0.86 -2.24,-1.23334 -0.0187,-0.956 -1.08,-1.836 -3.84133,-2.32533 -2.164,-0.37467 -6.41333,0.116 -6.44267,2.82667 -0.0667,5.57066 8.29467,3.17866 9.992,0.44933 0.76934,0.088 1.516,0.31733 2.19334,0.60133 -2.672,2.52267 -5.68267,5.63467 -8.15867,9.048 -0.57867,-0.384 -1.64933,-1.01066 -2.604,-1.44933 -0.024,-1.09067 -1.24,-2.09867 -4.404,-2.66133 -2.472,-0.432 -7.33333,0.13466 -7.372,3.232 -0.0707,6.38 9.50267,3.64266 11.43467,0.52133 0.93733,0.1 1.84533,0.392 2.66133,0.75867 -2.352,3.316 -4.15867,6.8892 -4.63067,10.46933 -0.628,-0.42813 -1.94266,-1.20773 -3.11466,-1.7468 -0.0293,-1.25733 -1.432,-2.42787 -5.08267,-3.06387 -2.852,-0.50533 -8.46667,0.14934 -8.508,3.72427 -0.0867,7.3624 10.964,4.2 13.2,0.5968 1.20267,0.13493 2.37733,0.52707 3.39867,1.01253 l 0.0547,-0.0391 c -0.236,2.4708 0.568,14.4 1.916,16.75734 l 0.17733,0.0667 c 0.61733,-0.12507 0.964,-0.0516 1.48533,-0.4172 -0.944,-2.55214 -1.16666,-15.45214 -0.84,-18.14014 l 0.032,-0.21973 c 0.67467,0.3 1.33867,0.67853 1.932,1.1588 -1.05066,4.08387 3.86,13.67547 8.876,8.30627 2.43733,-2.60267 -0.71333,-6.79747 -2.89067,-8.32134 -2.78133,-1.9584 -4.48666,-2.0412 -5.36933,-1.1516 -0.79866,-0.28173 -1.72533,-0.51093 -2.448,-0.664 0.7,-4.11493 2.66667,-7.04426 5.19467,-9.99893 l 0.003,0 c 0.85333,0.276 1.74133,0.71333 2.492,1.316 -0.90667,3.54 3.34667,11.85573 7.692,7.20427 2.11067,-2.25627 -0.62133,-5.89494 -2.504,-7.21494 -2.41467,-1.69866 -3.88667,-1.77066 -4.65333,-1.00133 -0.93334,-0.32533 -2.07067,-0.58 -2.69867,-0.684 0.82,-0.94133 1.69467,-1.89467 2.596,-2.88667 1.164,-1.27866 4.316,-3.728 6.98667,-6.17466 0.396,0.2 0.78133,0.436 1.13333,0.71466 -0.79733,3.09334 2.92133,10.35734 6.71333,6.29467 1.852,-1.97733 -0.54133,-5.14933 -2.18,-6.304 -2.10933,-1.48533 -3.396,-1.548 -4.064,-0.87867 -0.34933,-0.11466 -0.72266,-0.21866 -1.076,-0.31466 1.95734,-1.84267 3.53467,-3.63334 3.69334,-4.88267 3.296,-1.054666 7.632,-5.642665 3.168,-7.839999 -2.444,-1.197333 -4.904,1.922667 -5.59067,3.797333" />
    <path
       inkscape:connector-curvature="0"
       id="path68"
       style="fill:none;stroke:#da0f64;stroke-width:2;stroke-linecap:butt;stroke-linejoin:miter;stroke-miterlimit:4;stroke-dasharray:none;stroke-opacity:1"
       d="m -306.04609,77.568015 c -0.5,0.0013 -12.22934,0.178667 -12.22934,12.228 l 0,50.846665 c 0.003,0.49733 0.17734,12.228 12.22934,12.228 l 34.94799,0 c 0.5,-0.001 12.23067,-0.1776 12.23067,-12.228 l 0,-50.846665 c -0.003,-0.497334 -0.17867,-12.228 -12.23067,-12.228 l -34.94799,0 0,0 z" />
  </g>
</svg>
