<?xml version="1.0" encoding="UTF-8" standalone="no"?>
<!-- Created with Inkscape (http://www.inkscape.org/) -->

<svg
   xmlns:dc="http://purl.org/dc/elements/1.1/"
   xmlns:cc="http://creativecommons.org/ns#"
   xmlns:rdf="http://www.w3.org/1999/02/22-rdf-syntax-ns#"
   xmlns:svg="http://www.w3.org/2000/svg"
   xmlns="http://www.w3.org/2000/svg"
   xmlns:sodipodi="http://sodipodi.sourceforge.net/DTD/sodipodi-0.dtd"
   xmlns:inkscape="http://www.inkscape.org/namespaces/inkscape"
   width="17.329952mm"
   height="21.816532mm"
   viewBox="0 0 61.405343 77.302673"
   id="svg4348"
   version="1.1"
   inkscape:version="0.91 r13725"
   sodipodi:docname="recyclage.svg">
  <defs
     id="defs4350" />
  <sodipodi:namedview
     id="base"
     pagecolor="#ffffff"
     bordercolor="#666666"
     borderopacity="1.0"
     inkscape:pageopacity="0.0"
     inkscape:pageshadow="2"
     inkscape:zoom="0.35"
     inkscape:cx="30.70267"
     inkscape:cy="38.651335"
     inkscape:document-units="px"
     inkscape:current-layer="layer1"
     showgrid="false"
     fit-margin-top="0"
     fit-margin-left="0"
     fit-margin-right="0"
     fit-margin-bottom="0"
     inkscape:window-width="1877"
     inkscape:window-height="1056"
     inkscape:window-x="43"
     inkscape:window-y="24"
     inkscape:window-maximized="1" />
  <metadata
     id="metadata4353">
    <rdf:RDF>
      <cc:Work
         rdf:about="">
        <dc:format>image/svg+xml</dc:format>
        <dc:type
           rdf:resource="http://purl.org/dc/dcmitype/StillImage" />
        <dc:title></dc:title>
      </cc:Work>
    </rdf:RDF>
  </metadata>
  <g
     inkscape:label="Calque 1"
     inkscape:groupmode="layer"
     id="layer1"
     transform="translate(-344.29733,-493.71087)">
    <path
       inkscape:connector-curvature="0"
       d="m 398.236,530.51887 -5.32,-9.336 -8.956,5.16934 5.60933,9.45733 c 0,0 3.34667,4.11333 7.016,1.51733 3.78,-2.67067 1.65067,-6.808 1.65067,-6.808 m -11.19867,-7.53066 6.51467,-9.89867 -4.752,2.72667 -2.792,-4.88667 c 0,0 -0.60267,-3.796 -16.20533,-1.736 0,0 3.708,0.87733 4.47866,2.148 0.77867,1.26267 5.53867,9.62267 5.53867,9.62267 l -4.59333,2.62933 11.81066,-0.60533 z m -16.39066,-12.13867 c -4.20667,-1.94 -6.72667,1.948 -6.72667,1.948 l -5.444,9.268 8.92933,5.184 5.41334,-9.58 c 0,0 1.90533,-4.932 -2.172,-6.82 m -19.48,15.00533 4.728,2.74533 -2.808,4.872 c 0,0 -3.668,3.564 6.61333,14.89094 0,0 -1.092,-3.32147 -0.40267,-4.95894 0.69467,-1.62653 5.56667,-9.60666 5.56667,-9.60666 l 4.58667,2.66133 -6.44,-9.92933 -11.844,-0.67467 z m 10.28666,20.8572 c 0.42134,4.5948 5.06667,4.82133 5.06667,4.82133 l 10.73867,0.0656 0.0147,-10.32546 -11,0.11453 c 0,0 -5.232,0.83333 -4.82,5.324 m 22.004,-11.69987 -5.33734,10.53734 5.33734,10.5932 0,-5.47347 5.63333,0 c 0,0 4.70267,1.3272 9.56933,-13.18107 0,0 -2.45333,2.82 -4.09066,2.82 l -11.112,0 0,-5.296"
       style="fill:#da0f64;fill-opacity:1;fill-rule:nonzero;stroke:none"
       id="path62" />
    <path
       inkscape:connector-curvature="0"
       d="m 357.52667,494.71087 c -0.5,10e-4 -12.22934,0.17867 -12.22934,12.228 l 0,50.84667 c 0.001,0.49733 0.17734,12.228 12.228,12.228 l 34.948,0 c 0.5,-0.002 12.22934,-0.1776 12.22934,-12.228 l 0,-50.84667 c -0.003,-0.49733 -0.17734,-12.228 -12.22934,-12.228 l -34.948,0 10e-4,0 z"
       style="fill:none;stroke:#da0f64;stroke-width:2;stroke-linecap:butt;stroke-linejoin:miter;stroke-miterlimit:4;stroke-dasharray:none;stroke-opacity:1"
       id="path64" />
  </g>
</svg>
