<?xml version="1.0" encoding="UTF-8" standalone="no"?>
<!-- Created with Inkscape (http://www.inkscape.org/) -->

<svg
   xmlns:dc="http://purl.org/dc/elements/1.1/"
   xmlns:cc="http://creativecommons.org/ns#"
   xmlns:rdf="http://www.w3.org/1999/02/22-rdf-syntax-ns#"
   xmlns:svg="http://www.w3.org/2000/svg"
   xmlns="http://www.w3.org/2000/svg"
   xmlns:sodipodi="http://sodipodi.sourceforge.net/DTD/sodipodi-0.dtd"
   xmlns:inkscape="http://www.inkscape.org/namespaces/inkscape"
   width="15.597481mm"
   height="19.634285mm"
   viewBox="0 0 55.266664 69.570301"
   id="svg4592"
   version="1.1"
   inkscape:version="0.91 r13725"
   sodipodi:docname="rencontre.svg">
  <defs
     id="defs4594" />
  <sodipodi:namedview
     id="base"
     pagecolor="#ffffff"
     bordercolor="#666666"
     borderopacity="1.0"
     inkscape:pageopacity="0.0"
     inkscape:pageshadow="2"
     inkscape:zoom="0.35"
     inkscape:cx="428.34762"
     inkscape:cy="-350.92913"
     inkscape:document-units="px"
     inkscape:current-layer="layer1"
     showgrid="false"
     fit-margin-top="0"
     fit-margin-left="0"
     fit-margin-right="0"
     fit-margin-bottom="0"
     inkscape:window-width="494"
     inkscape:window-height="373"
     inkscape:window-x="1920"
     inkscape:window-y="24"
     inkscape:window-maximized="0" />
  <metadata
     id="metadata4597">
    <rdf:RDF>
      <cc:Work
         rdf:about="">
        <dc:format>image/svg+xml</dc:format>
        <dc:type
           rdf:resource="http://purl.org/dc/dcmitype/StillImage" />
        <dc:title></dc:title>
      </cc:Work>
    </rdf:RDF>
  </metadata>
  <g
     inkscape:label="Calque 1"
     inkscape:groupmode="layer"
     id="layer1"
     transform="translate(53.347618,-111.86277)">
    <path
       inkscape:connector-curvature="0"
       d="M -4.0742862,139.81583 -15.592952,128.2961 c -0.413334,-0.4136 -1.090667,-0.4136 -1.505334,0 l -2.866666,2.8692 c -0.414667,0.41307 -0.414667,1.08907 0,1.50267 l 11.5186658,11.51973 c 0.412,0.4136 1.090667,0.4136 1.504,0 l 2.868,-2.8676 c 0.413333,-0.4136 0.413333,-1.09067 0,-1.50427 m -15.2026658,-4.61866 c -0.838667,-0.8344 -2.005333,-0.99747 -3.148,-0.47614 -1.141333,0.524 -6.258667,2.86987 -6.258667,2.86987 -0.697333,0.24533 -1.246666,0.7968 -1.489333,1.49587 l -1.378667,3.9812 c -0.318666,0.90786 -0.06133,1.8812 0.577334,2.51973 0.256,0.25373 0.564,0.4548 0.925333,0.57867 1.272,0.4428 2.66,-0.22907 3.102667,-1.50107 l 0.994666,-2.87187 4.057334,-1.44 7.419999,7.4224 1.992,-1.99066 c 1.042667,-1.04267 1.042667,-2.74787 0,-3.79067 l -6.794666,-6.79733 z m -10.898667,-0.0251 c 0.414667,-0.41347 0.414667,-1.0896 0,-1.50254 l -3.096,-3.1 c -0.414666,-0.41359 -1.091999,-0.41359 -1.503999,1e-5 l -12.577334,12.57866 c -0.414666,0.41294 -0.414666,1.08907 0,1.5052 l 3.096,3.09734 c 0.412,0.41306 1.090667,0.41306 1.502667,0 l 12.578666,-12.57867 z m -10.111999,12.44533 c -0.344,0.34534 -0.344,0.90934 0,1.2532 l 0.822666,0.82134 1.552,-1.5532 c 1.034667,-1.03587 2.716,-1.03587 3.750667,-0.001 0.514667,0.51453 0.773333,1.19053 0.774667,1.86666 0.677333,0.002 1.351999,0.25987 1.867999,0.776 0.513334,0.51347 0.770667,1.188 0.773334,1.864 0.674666,0.003 1.352,0.26 1.865333,0.77347 0.513333,0.5156 0.773333,1.19173 0.776,1.86667 0.676,0.004 1.350667,0.26146 1.866667,0.77706 1.032,1.03227 1.032,2.7136 -0.0027,3.74947 l -1.552,1.55213 3.430667,3.43174 c 0.689333,0.6896 1.806666,0.6896 2.493333,-0.001 0.688,-0.688 0.693333,-1.80574 0.0013,-2.49627 l -2.737333,-2.7412 c -0.24,-0.23173 -0.24,-0.61347 -0.0027,-0.84947 0.236,-0.2344 0.617334,-0.23333 0.850667,0.003 l 2.742667,2.73907 c 0.686666,0.68907 1.803999,0.68907 2.494666,-0.003 0.688,-0.68693 0.688,-1.80413 0,-2.4912 l -2.741333,-2.74107 c -0.234667,-0.23746 -0.236,-0.6172 0,-0.8532 0.236,-0.23746 0.614667,-0.2348 0.850667,0 l 2.746666,2.74534 c 0.688,0.68546 1.801333,0.68226 2.488,-0.006 0.689333,-0.6864 0.690667,-1.80107 0.0027,-2.4916 l -2.742667,-2.74174 c -0.234667,-0.23586 -0.236,-0.6156 0,-0.85306 0.234667,-0.23334 0.617333,-0.2344 0.852,0.002 l 2.744,2.7428 c 0.690667,0.68533 1.802667,0.6828 2.492,-0.007 0.688,-0.688 0.688,-1.8 -0.0013,-2.49067 l -10.48,-10.45307 -2.773333,0.9812 -0.786667,2.26934 c -0.332,0.95053 -1.012,1.71866 -1.918667,2.15626 -0.904,0.43694 -1.925333,0.49574 -2.877333,0.16507 -0.54,-0.188 -1.021333,-0.488 -1.428,-0.8932 -1.016,-1.0172 -1.366666,-2.548 -0.894667,-3.90267 l 1.202667,-3.46826 -8.502666,8.5016 z m 1.084,3.59067 c -0.542667,0.54533 -0.542667,1.42493 0.0013,1.97027 0.542667,0.54173 1.422667,0.54266 1.966667,0 l 2.181333,-2.17974 c 0.542667,-0.54266 0.542667,-1.428 0,-1.96813 -0.542667,-0.5464 -1.426667,-0.54533 -1.970667,0 l -2.178666,2.1776 z m 2.642666,2.64267 c -0.544,0.5412 -0.546666,1.424 0,1.96933 0.544,0.54267 1.424,0.54107 1.968,-0.002 l 2.177333,-2.17973 c 0.546667,-0.54534 0.546667,-1.42547 0.0027,-1.96667 -0.544,-0.5468 -1.424,-0.5468 -1.969333,-0.002 l -2.178667,2.1812 z m 2.638667,2.6412 c -0.542667,0.54106 -0.542667,1.42546 0,1.96813 0.545333,0.54387 1.428,0.54387 1.970666,0 l 2.181334,-2.17853 c 0.54,-0.5428 0.54,-1.4256 -0.0027,-1.97094 -0.542667,-0.54106 -1.426667,-0.54106 -1.968,-0.001 l -2.181333,2.1828 z m 2.642666,2.63853 c -0.542666,0.54267 -0.542666,1.42707 0,1.9708 0.544,0.54427 1.424,0.54267 1.966667,-0.003 l 2.178667,-2.1776 c 0.545333,-0.54627 0.545333,-1.42387 0.0027,-1.9692 -0.544,-0.54373 -1.426666,-0.54373 -1.969333,-0.001 l -2.178667,2.17973"
       style="fill:#da0f64;fill-opacity:1;fill-rule:nonzero;stroke:none"
       id="path78" />
    <path
       inkscape:connector-curvature="0"
       d="m -41.440952,112.76277 c -0.448,10e-4 -11.006666,0.15986 -11.006666,11.0068 l 0,45.75829 c 0.0013,0.44792 0.161333,11.00521 11.006666,11.00521 l 31.4546658,0 c 0.448,0 11.005333,-0.1599 11.005333,-11.00521 l 0,-45.75829 c -0.00133,-0.44947 -0.161333,-11.0068 -11.005333,-11.0068 l -31.4546658,0 0,0 z"
       style="fill:none;stroke:#da0f64;stroke-width:1.79999995;stroke-linecap:butt;stroke-linejoin:miter;stroke-miterlimit:4;stroke-dasharray:none;stroke-opacity:1"
       id="path80" />
  </g>
</svg>
