<?xml version="1.0" encoding="UTF-8" standalone="no"?>
<!-- Created with Inkscape (http://www.inkscape.org/) -->

<svg
   xmlns:dc="http://purl.org/dc/elements/1.1/"
   xmlns:cc="http://creativecommons.org/ns#"
   xmlns:rdf="http://www.w3.org/1999/02/22-rdf-syntax-ns#"
   xmlns:svg="http://www.w3.org/2000/svg"
   xmlns="http://www.w3.org/2000/svg"
   xmlns:sodipodi="http://sodipodi.sourceforge.net/DTD/sodipodi-0.dtd"
   xmlns:inkscape="http://www.inkscape.org/namespaces/inkscape"
   width="15.597104mm"
   height="19.634287mm"
   viewBox="0 0 55.265329 69.570308"
   id="svg4637"
   version="1.1"
   inkscape:version="0.91 r13725"
   sodipodi:docname="transport.svg">
  <defs
     id="defs4639" />
  <sodipodi:namedview
     id="base"
     pagecolor="#ffffff"
     bordercolor="#666666"
     borderopacity="1.0"
     inkscape:pageopacity="0.0"
     inkscape:pageshadow="2"
     inkscape:zoom="0.35"
     inkscape:cx="1185.4898"
     inkscape:cy="-645.21484"
     inkscape:document-units="px"
     inkscape:current-layer="layer1"
     showgrid="false"
     fit-margin-top="0"
     fit-margin-left="0"
     fit-margin-right="0"
     fit-margin-bottom="0"
     inkscape:window-width="1920"
     inkscape:window-height="1056"
     inkscape:window-x="1920"
     inkscape:window-y="24"
     inkscape:window-maximized="1" />
  <metadata
     id="metadata4642">
    <rdf:RDF>
      <cc:Work
         rdf:about="">
        <dc:format>image/svg+xml</dc:format>
        <dc:type
           rdf:resource="http://purl.org/dc/dcmitype/StillImage" />
        <dc:title></dc:title>
      </cc:Work>
    </rdf:RDF>
  </metadata>
  <g
     inkscape:label="Calque 1"
     inkscape:groupmode="layer"
     id="layer1"
     transform="translate(810.48981,182.42295)">
    <path
       inkscape:connector-curvature="0"
       d="m -805.97514,-145.04948 c 0,-0.3604 0.012,-0.72813 0.0293,-1.09747 l 0.0173,-0.24426 0.016,-0.24534 c 0.0867,-1.05826 0.25067,-2.14626 0.516,-3.2036 l 0.0653,-0.23066 0.0613,-0.2324 c 0.89333,-3.21614 2.66533,-6.0744 5.52267,-7.00934 0,0 3.47333,-1.0864 6.27733,-1.964 l 0.0173,0 c 0.32533,-0.001 0.564,0.0724 0.66533,0.12814 l 0.0107,0.003 0,0.088 c 0.003,1.5068 -0.13866,3.07866 -0.13866,4.62293 -0.003,2.87187 0.492,5.7036 3.33466,7.7292 1.456,0.84787 3.008,1.276 4.51734,1.276 2.37066,0.003 4.62533,-1.06147 6.15333,-3.164 0.77333,-0.99333 1.15867,-2.06667 1.33733,-3.16147 l 0.0347,-0.28386 0.04,-0.27867 c 0.044,-0.436 0.064,-0.87453 0.064,-1.30933 l 0,-0.0385 -0.004,-0.2828 -0.008,-0.31467 c -0.0347,-1.112 -0.13066,-2.21347 -0.13066,-3.2708 l 0,-0.27867 c 0.10266,-0.15306 0.37733,-0.34893 0.688,-0.52493 l 0.088,-0.0521 0.13333,-0.0547 0.22133,-0.0896 0.39334,-0.13173 c 0.58533,0.164 1.176,0.32906 1.728,0.48533 0.304,0.0855 0.59733,0.16933 0.87466,0.2464 l 0.23067,0.0656 0.23333,0.0641 c 0.92,0.25987 1.58534,0.44787 1.71867,0.48373 2.62533,1.40947 6.19733,4.3412 8.25467,7.5308 -0.47867,0.3864 -0.784,0.94787 -0.78667,1.5916 0.003,1.1844 1.032,2.1152 2.26933,2.11774 l 0.0747,-0.009 c 0.064,0.35053 0.096,0.69586 0.096,1.04013 0,4.44107 -3.136,8.076 -7.132,8.54267 -0.392,-2.3964 -2.552,-4.22134 -5.14933,-4.22547 -2.616,0.004 -4.78533,1.852 -5.15867,4.2796 l -10.87866,0 c -0.36534,-2.42493 -2.49467,-4.27547 -5.06,-4.2796 -2.49067,0.004 -4.568,1.74373 -5.02667,4.05467 -3.54667,-0.87187 -6.21067,-4.27507 -6.21067,-8.37187 m 21.84533,-8.65627 c -0.16933,-0.1412 -0.25867,-0.35733 -0.25867,-0.62813 0,-0.29747 0.12134,-0.65213 0.372,-0.95053 l 3.13334,-3.73334 c 0.3,-0.36506 0.712,-0.55306 1.04666,-0.55306 l 0.005,0 c 0.188,0 0.35067,0.0557 0.48667,0.16666 0.16667,0.13947 0.25467,0.3572 0.25867,0.62494 0,0.3 -0.12134,0.65106 -0.376,0.95213 l -0.97467,1.1624 -0.17333,0.21093 -0.20667,0.24387 -0.432,0.51187 -0.19467,0.2376 -0.17466,0.20413 -0.97467,1.16507 c -0.30533,0.3656 -0.71733,0.55466 -1.05467,0.55373 -0.18666,0 -0.35066,-0.0573 -0.48266,-0.16573 l 0,-0.002 z m 3.80533,-2.34373 2.40134,2.01293 0.007,0.37094 c 0,0.32546 -0.012,0.64786 -0.0347,0.9692 l -3.04134,-2.55307 0.668,-0.8 z m 3.312,-6.0844 -0.0227,-0.28387 c 0.003,-0.82653 0.56934,-1.53493 1.35067,-1.65573 l 0.23867,-0.0177 0.003,0 c 0.776,0 1.48266,0.60267 1.61466,1.45627 l 0.56667,3.59426 0.02,0.28027 -0.044,0.376 c -0.28667,-0.0828 -0.59333,-0.16667 -0.91333,-0.25733 -0.57067,-0.1588 -1.17734,-0.33067 -1.78667,-0.50414 l -0.0613,-0.0188 -0.0653,0.0177 -0.41067,0.13187 -0.48933,-3.1188 z m 13.69334,13.93587 c 0,-0.4624 0.21466,-0.8848 0.56,-1.1848 l 0.192,-0.14694 0.21066,-0.11613 c 0.24934,-0.1172 0.52534,-0.19427 0.82667,-0.19427 1.00533,0.003 1.79067,0.7516 1.79067,1.64214 0,0.74853 -0.564,1.3948 -1.34,1.57866 l -0.23467,0.0391 -0.216,0.0188 -0.02,0 c -0.99333,-0.012 -1.76933,-0.7536 -1.76933,-1.63653 m -5.59334,12.19747 0.0147,0.2828 c -0.003,2.4932 -2.112,4.53173 -4.74266,4.53173 -2.62667,0 -4.73867,-2.03853 -4.74,-4.53173 l 0.009,-0.25734 0.0173,-0.23746 0.04,-0.24014 c 0.368,-2.14893 2.31066,-3.8 4.67333,-3.8 2.356,0 4.28933,1.63907 4.67067,3.7776 l 0.0387,0.23854 0.0187,0.236 z m -21.19733,0.0255 0.012,0.25733 c -0.005,2.49733 -2.07467,4.53173 -4.64,4.536 -2.568,-0.004 -4.63867,-2.03867 -4.64133,-4.536 l 0.0173,-0.38547 0.0307,-0.24 0.0347,-0.23706 c 0.416,-2.09054 2.292,-3.6724 4.55866,-3.6724 2.30934,0 4.20934,1.64853 4.57067,3.8 l 0.0387,0.24013 0.0187,0.23747"
       style="fill:#da0f64;fill-opacity:1;fill-rule:nonzero;stroke:none"
       id="path74" />
    <path
       inkscape:connector-curvature="0"
       d="m -798.58448,-181.52295 c -0.448,0.001 -11.00533,0.15987 -11.00533,11.0068 l 0,45.7583 c 0,0.44792 0.15867,11.00521 11.00533,11.00521 l 31.45334,0 c 0.448,0 11.00666,-0.1599 11.00666,-11.00521 l 0,-45.7583 c -0.001,-0.44946 -0.16,-11.0068 -11.00666,-11.0068 l -31.45334,0 0,0 z"
       style="fill:none;stroke:#da0f64;stroke-width:1.79999995;stroke-linecap:butt;stroke-linejoin:miter;stroke-miterlimit:4;stroke-dasharray:none;stroke-opacity:1"
       id="path76" />
  </g>
</svg>
